%TF.GenerationSoftware,KiCad,Pcbnew,9.0.1*%
%TF.CreationDate,2025-05-30T13:12:11+09:00*%
%TF.ProjectId,Altair_MDD_V3,416c7461-6972-45f4-9d44-445f56332e6b,rev?*%
%TF.SameCoordinates,Original*%
%TF.FileFunction,Legend,Bot*%
%TF.FilePolarity,Positive*%
%FSLAX46Y46*%
G04 Gerber Fmt 4.6, Leading zero omitted, Abs format (unit mm)*
G04 Created by KiCad (PCBNEW 9.0.1) date 2025-05-30 13:12:11*
%MOMM*%
%LPD*%
G01*
G04 APERTURE LIST*
G04 Aperture macros list*
%AMRoundRect*
0 Rectangle with rounded corners*
0 $1 Rounding radius*
0 $2 $3 $4 $5 $6 $7 $8 $9 X,Y pos of 4 corners*
0 Add a 4 corners polygon primitive as box body*
4,1,4,$2,$3,$4,$5,$6,$7,$8,$9,$2,$3,0*
0 Add four circle primitives for the rounded corners*
1,1,$1+$1,$2,$3*
1,1,$1+$1,$4,$5*
1,1,$1+$1,$6,$7*
1,1,$1+$1,$8,$9*
0 Add four rect primitives between the rounded corners*
20,1,$1+$1,$2,$3,$4,$5,0*
20,1,$1+$1,$4,$5,$6,$7,0*
20,1,$1+$1,$6,$7,$8,$9,0*
20,1,$1+$1,$8,$9,$2,$3,0*%
G04 Aperture macros list end*
%ADD10O,2.800000X2.000000*%
%ADD11RoundRect,0.250000X0.600000X0.725000X-0.600000X0.725000X-0.600000X-0.725000X0.600000X-0.725000X0*%
%ADD12O,1.700000X1.950000*%
%ADD13R,1.700000X1.700000*%
%ADD14C,1.700000*%
%ADD15O,2.000000X2.800000*%
%ADD16RoundRect,0.250000X0.725000X-0.600000X0.725000X0.600000X-0.725000X0.600000X-0.725000X-0.600000X0*%
%ADD17O,1.950000X1.700000*%
%ADD18RoundRect,0.250000X-0.600000X-0.725000X0.600000X-0.725000X0.600000X0.725000X-0.600000X0.725000X0*%
%ADD19C,0.800000*%
%ADD20C,6.400000*%
%ADD21C,1.250000*%
%ADD22RoundRect,0.250000X-0.725000X0.600000X-0.725000X-0.600000X0.725000X-0.600000X0.725000X0.600000X0*%
G04 APERTURE END LIST*
%LPC*%
D10*
%TO.C,J13*%
X99000000Y-45000000D03*
D11*
X102750000Y-51500000D03*
D12*
X100250000Y-51500000D03*
X97750000Y-51500000D03*
X95250000Y-51500000D03*
%TD*%
D13*
%TO.C,J2*%
X129000000Y-61460000D03*
D14*
X129000000Y-64000000D03*
%TD*%
D15*
%TO.C,J6*%
X166000000Y-53000000D03*
D16*
X159500000Y-54250000D03*
D17*
X159500000Y-51750000D03*
%TD*%
D10*
%TO.C,J11*%
X149000000Y-45000000D03*
D11*
X150250000Y-51500000D03*
D12*
X147750000Y-51500000D03*
%TD*%
D10*
%TO.C,J10*%
X140000000Y-45000000D03*
D11*
X141250000Y-51500000D03*
D12*
X138750000Y-51500000D03*
%TD*%
D10*
%TO.C,J20*%
X85000000Y-95000000D03*
D18*
X81250000Y-88500000D03*
D12*
X83750000Y-88500000D03*
X86250000Y-88500000D03*
X88750000Y-88500000D03*
%TD*%
D10*
%TO.C,J14*%
X113000000Y-45000000D03*
D11*
X116750000Y-51500000D03*
D12*
X114250000Y-51500000D03*
X111750000Y-51500000D03*
X109250000Y-51500000D03*
%TD*%
D19*
%TO.C,H2*%
X71600000Y-44000000D03*
X72302944Y-42302944D03*
X72302944Y-45697056D03*
X74000000Y-41600000D03*
D20*
X74000000Y-44000000D03*
D19*
X74000000Y-46400000D03*
X75697056Y-42302944D03*
X75697056Y-45697056D03*
X76400000Y-44000000D03*
%TD*%
D21*
%TO.C,J18*%
X166600000Y-82100000D03*
D16*
X165000000Y-80500000D03*
D17*
X165000000Y-78000000D03*
X165000000Y-75500000D03*
X165000000Y-73000000D03*
%TD*%
D10*
%TO.C,J23*%
X127000000Y-95000000D03*
D18*
X123250000Y-88500000D03*
D12*
X125750000Y-88500000D03*
X128250000Y-88500000D03*
X130750000Y-88500000D03*
%TD*%
D13*
%TO.C,J4*%
X90460000Y-59000000D03*
D14*
X93000000Y-59000000D03*
%TD*%
D21*
%TO.C,J19*%
X157600000Y-82100000D03*
D16*
X156000000Y-80500000D03*
D17*
X156000000Y-78000000D03*
X156000000Y-75500000D03*
X156000000Y-73000000D03*
%TD*%
D13*
%TO.C,J1*%
X124000000Y-61460000D03*
D14*
X124000000Y-64000000D03*
%TD*%
D10*
%TO.C,J9*%
X149550000Y-95000000D03*
D18*
X148300000Y-88500000D03*
D12*
X150800000Y-88500000D03*
%TD*%
D10*
%TO.C,J15*%
X127000000Y-45000000D03*
D11*
X130750000Y-51500000D03*
D12*
X128250000Y-51500000D03*
X125750000Y-51500000D03*
X123250000Y-51500000D03*
%TD*%
D19*
%TO.C,H1*%
X71600000Y-96000000D03*
X72302944Y-94302944D03*
X72302944Y-97697056D03*
X74000000Y-93600000D03*
D20*
X74000000Y-96000000D03*
D19*
X74000000Y-98400000D03*
X75697056Y-94302944D03*
X75697056Y-97697056D03*
X76400000Y-96000000D03*
%TD*%
D13*
%TO.C,J5*%
X91000000Y-72000000D03*
D14*
X93540000Y-72000000D03*
%TD*%
D10*
%TO.C,J21*%
X99000000Y-95000000D03*
D18*
X95250000Y-88500000D03*
D12*
X97750000Y-88500000D03*
X100250000Y-88500000D03*
X102750000Y-88500000D03*
%TD*%
D10*
%TO.C,J22*%
X113000000Y-95000000D03*
D18*
X109250000Y-88500000D03*
D12*
X111750000Y-88500000D03*
X114250000Y-88500000D03*
X116750000Y-88500000D03*
%TD*%
D10*
%TO.C,J8*%
X140000000Y-95000000D03*
D18*
X138750000Y-88500000D03*
D12*
X141250000Y-88500000D03*
%TD*%
D19*
%TO.C,H4*%
X163600000Y-96000000D03*
X164302944Y-94302944D03*
X164302944Y-97697056D03*
X166000000Y-93600000D03*
D20*
X166000000Y-96000000D03*
D19*
X166000000Y-98400000D03*
X167697056Y-94302944D03*
X167697056Y-97697056D03*
X168400000Y-96000000D03*
%TD*%
D15*
%TO.C,J17*%
X74000000Y-77250000D03*
D22*
X80500000Y-76000000D03*
D17*
X80500000Y-78500000D03*
%TD*%
D13*
%TO.C,J3*%
X121920000Y-76000000D03*
D14*
X124460000Y-76000000D03*
X127000000Y-76000000D03*
X129540000Y-76000000D03*
X132080000Y-76000000D03*
%TD*%
D15*
%TO.C,J16*%
X74000000Y-62750000D03*
D22*
X80500000Y-61500000D03*
D17*
X80500000Y-64000000D03*
%TD*%
D10*
%TO.C,J12*%
X85000000Y-45000000D03*
D11*
X88750000Y-51500000D03*
D12*
X86250000Y-51500000D03*
X83750000Y-51500000D03*
X81250000Y-51500000D03*
%TD*%
D15*
%TO.C,J7*%
X166000000Y-62000000D03*
D16*
X159500000Y-63250000D03*
D17*
X159500000Y-60750000D03*
%TD*%
D19*
%TO.C,H3*%
X163600000Y-44000000D03*
X164302944Y-42302944D03*
X164302944Y-45697056D03*
X166000000Y-41600000D03*
D20*
X166000000Y-44000000D03*
D19*
X166000000Y-46400000D03*
X167697056Y-42302944D03*
X167697056Y-45697056D03*
X168400000Y-44000000D03*
%TD*%
%LPD*%
M02*
