%TF.GenerationSoftware,KiCad,Pcbnew,9.0.1*%
%TF.CreationDate,2025-05-30T13:12:11+09:00*%
%TF.ProjectId,Altair_MDD_V3,416c7461-6972-45f4-9d44-445f56332e6b,rev?*%
%TF.SameCoordinates,Original*%
%TF.FileFunction,Soldermask,Top*%
%TF.FilePolarity,Negative*%
%FSLAX46Y46*%
G04 Gerber Fmt 4.6, Leading zero omitted, Abs format (unit mm)*
G04 Created by KiCad (PCBNEW 9.0.1) date 2025-05-30 13:12:11*
%MOMM*%
%LPD*%
G01*
G04 APERTURE LIST*
G04 Aperture macros list*
%AMRoundRect*
0 Rectangle with rounded corners*
0 $1 Rounding radius*
0 $2 $3 $4 $5 $6 $7 $8 $9 X,Y pos of 4 corners*
0 Add a 4 corners polygon primitive as box body*
4,1,4,$2,$3,$4,$5,$6,$7,$8,$9,$2,$3,0*
0 Add four circle primitives for the rounded corners*
1,1,$1+$1,$2,$3*
1,1,$1+$1,$4,$5*
1,1,$1+$1,$6,$7*
1,1,$1+$1,$8,$9*
0 Add four rect primitives between the rounded corners*
20,1,$1+$1,$2,$3,$4,$5,0*
20,1,$1+$1,$4,$5,$6,$7,0*
20,1,$1+$1,$6,$7,$8,$9,0*
20,1,$1+$1,$8,$9,$2,$3,0*%
G04 Aperture macros list end*
%ADD10RoundRect,0.225000X0.250000X-0.225000X0.250000X0.225000X-0.250000X0.225000X-0.250000X-0.225000X0*%
%ADD11RoundRect,0.250000X0.600000X0.725000X-0.600000X0.725000X-0.600000X-0.725000X0.600000X-0.725000X0*%
%ADD12O,1.700000X1.950000*%
%ADD13RoundRect,0.218750X0.218750X0.256250X-0.218750X0.256250X-0.218750X-0.256250X0.218750X-0.256250X0*%
%ADD14R,1.700000X1.700000*%
%ADD15C,1.700000*%
%ADD16RoundRect,0.150000X0.825000X0.150000X-0.825000X0.150000X-0.825000X-0.150000X0.825000X-0.150000X0*%
%ADD17RoundRect,0.250000X0.725000X-0.600000X0.725000X0.600000X-0.725000X0.600000X-0.725000X-0.600000X0*%
%ADD18O,1.950000X1.700000*%
%ADD19RoundRect,0.200000X0.200000X0.275000X-0.200000X0.275000X-0.200000X-0.275000X0.200000X-0.275000X0*%
%ADD20RoundRect,0.225000X-0.250000X0.225000X-0.250000X-0.225000X0.250000X-0.225000X0.250000X0.225000X0*%
%ADD21RoundRect,0.225000X0.225000X0.250000X-0.225000X0.250000X-0.225000X-0.250000X0.225000X-0.250000X0*%
%ADD22RoundRect,0.250000X-0.600000X-0.725000X0.600000X-0.725000X0.600000X0.725000X-0.600000X0.725000X0*%
%ADD23C,0.800000*%
%ADD24C,6.400000*%
%ADD25RoundRect,0.250000X-0.350000X0.850000X-0.350000X-0.850000X0.350000X-0.850000X0.350000X0.850000X0*%
%ADD26RoundRect,0.249997X-2.650003X2.950003X-2.650003X-2.950003X2.650003X-2.950003X2.650003X2.950003X0*%
%ADD27RoundRect,0.075000X-0.700000X-0.075000X0.700000X-0.075000X0.700000X0.075000X-0.700000X0.075000X0*%
%ADD28RoundRect,0.075000X-0.075000X-0.700000X0.075000X-0.700000X0.075000X0.700000X-0.075000X0.700000X0*%
%ADD29RoundRect,0.225000X-0.225000X-0.250000X0.225000X-0.250000X0.225000X0.250000X-0.225000X0.250000X0*%
%ADD30RoundRect,0.250000X-0.725000X0.600000X-0.725000X-0.600000X0.725000X-0.600000X0.725000X0.600000X0*%
%ADD31RoundRect,0.200000X-0.200000X-0.275000X0.200000X-0.275000X0.200000X0.275000X-0.200000X0.275000X0*%
G04 APERTURE END LIST*
D10*
%TO.C,C4*%
X101000000Y-71775000D03*
X101000000Y-70225000D03*
%TD*%
D11*
%TO.C,J13*%
X102750000Y-51500000D03*
D12*
X100250000Y-51500000D03*
X97750000Y-51500000D03*
X95250000Y-51500000D03*
%TD*%
D13*
%TO.C,D1*%
X162575000Y-86000000D03*
X161000000Y-86000000D03*
%TD*%
D14*
%TO.C,J2*%
X129000000Y-61460000D03*
D15*
X129000000Y-64000000D03*
%TD*%
D16*
%TO.C,U3*%
X94475000Y-79905000D03*
X94475000Y-78635000D03*
X94475000Y-77365000D03*
X94475000Y-76095000D03*
X89525000Y-76095000D03*
X89525000Y-77365000D03*
X89525000Y-78635000D03*
X89525000Y-79905000D03*
%TD*%
D17*
%TO.C,J6*%
X159500000Y-54250000D03*
D18*
X159500000Y-51750000D03*
%TD*%
D19*
%TO.C,R1*%
X166650000Y-86000000D03*
X165000000Y-86000000D03*
%TD*%
D13*
%TO.C,D2*%
X144787500Y-59000000D03*
X143212500Y-59000000D03*
%TD*%
D19*
%TO.C,R5*%
X166650000Y-90000000D03*
X165000000Y-90000000D03*
%TD*%
%TO.C,R4*%
X166650000Y-88000000D03*
X165000000Y-88000000D03*
%TD*%
D20*
%TO.C,C6*%
X118000000Y-66225000D03*
X118000000Y-67775000D03*
%TD*%
D11*
%TO.C,J11*%
X150250000Y-51500000D03*
D12*
X147750000Y-51500000D03*
%TD*%
D21*
%TO.C,C1*%
X113775000Y-79000000D03*
X112225000Y-79000000D03*
%TD*%
D11*
%TO.C,J10*%
X141250000Y-51500000D03*
D12*
X138750000Y-51500000D03*
%TD*%
D22*
%TO.C,J20*%
X81250000Y-88500000D03*
D12*
X83750000Y-88500000D03*
X86250000Y-88500000D03*
X88750000Y-88500000D03*
%TD*%
D11*
%TO.C,J14*%
X116750000Y-51500000D03*
D12*
X114250000Y-51500000D03*
X111750000Y-51500000D03*
X109250000Y-51500000D03*
%TD*%
D23*
%TO.C,H2*%
X71600000Y-44000000D03*
X72302944Y-42302944D03*
X72302944Y-45697056D03*
X74000000Y-41600000D03*
D24*
X74000000Y-44000000D03*
D23*
X74000000Y-46400000D03*
X75697056Y-42302944D03*
X75697056Y-45697056D03*
X76400000Y-44000000D03*
%TD*%
D17*
%TO.C,J18*%
X165000000Y-80500000D03*
D18*
X165000000Y-78000000D03*
X165000000Y-75500000D03*
X165000000Y-73000000D03*
%TD*%
D20*
%TO.C,C7*%
X152000000Y-61225000D03*
X152000000Y-62775000D03*
%TD*%
D22*
%TO.C,J23*%
X123250000Y-88500000D03*
D12*
X125750000Y-88500000D03*
X128250000Y-88500000D03*
X130750000Y-88500000D03*
%TD*%
D14*
%TO.C,J4*%
X90460000Y-59000000D03*
D15*
X93000000Y-59000000D03*
%TD*%
D21*
%TO.C,C3*%
X105775000Y-79000000D03*
X104225000Y-79000000D03*
%TD*%
D17*
%TO.C,J19*%
X156000000Y-80500000D03*
D18*
X156000000Y-78000000D03*
X156000000Y-75500000D03*
X156000000Y-73000000D03*
%TD*%
D14*
%TO.C,J1*%
X124000000Y-61460000D03*
D15*
X124000000Y-64000000D03*
%TD*%
D22*
%TO.C,J9*%
X148300000Y-88500000D03*
D12*
X150800000Y-88500000D03*
%TD*%
D11*
%TO.C,J15*%
X130750000Y-51500000D03*
D12*
X128250000Y-51500000D03*
X125750000Y-51500000D03*
X123250000Y-51500000D03*
%TD*%
D25*
%TO.C,U4*%
X146280000Y-61960000D03*
D26*
X144000000Y-68260000D03*
D25*
X141720000Y-61960000D03*
%TD*%
D23*
%TO.C,H1*%
X71600000Y-96000000D03*
X72302944Y-94302944D03*
X72302944Y-97697056D03*
X74000000Y-93600000D03*
D24*
X74000000Y-96000000D03*
D23*
X74000000Y-98400000D03*
X75697056Y-94302944D03*
X75697056Y-97697056D03*
X76400000Y-96000000D03*
%TD*%
D14*
%TO.C,J5*%
X91000000Y-72000000D03*
D15*
X93540000Y-72000000D03*
%TD*%
D22*
%TO.C,J21*%
X95250000Y-88500000D03*
D12*
X97750000Y-88500000D03*
X100250000Y-88500000D03*
X102750000Y-88500000D03*
%TD*%
D22*
%TO.C,J22*%
X109250000Y-88500000D03*
D12*
X111750000Y-88500000D03*
X114250000Y-88500000D03*
X116750000Y-88500000D03*
%TD*%
D22*
%TO.C,J8*%
X138750000Y-88500000D03*
D12*
X141250000Y-88500000D03*
%TD*%
D23*
%TO.C,H4*%
X163600000Y-96000000D03*
X164302944Y-94302944D03*
X164302944Y-97697056D03*
X166000000Y-93600000D03*
D24*
X166000000Y-96000000D03*
D23*
X166000000Y-98400000D03*
X167697056Y-94302944D03*
X167697056Y-97697056D03*
X168400000Y-96000000D03*
%TD*%
D27*
%TO.C,U1*%
X103325000Y-66250000D03*
X103325000Y-66750000D03*
X103325000Y-67250000D03*
X103325000Y-67750000D03*
X103325000Y-68250000D03*
X103325000Y-68750000D03*
X103325000Y-69250000D03*
X103325000Y-69750000D03*
X103325000Y-70250000D03*
X103325000Y-70750000D03*
X103325000Y-71250000D03*
X103325000Y-71750000D03*
X103325000Y-72250000D03*
X103325000Y-72750000D03*
X103325000Y-73250000D03*
X103325000Y-73750000D03*
D28*
X105250000Y-75675000D03*
X105750000Y-75675000D03*
X106250000Y-75675000D03*
X106750000Y-75675000D03*
X107250000Y-75675000D03*
X107750000Y-75675000D03*
X108250000Y-75675000D03*
X108750000Y-75675000D03*
X109250000Y-75675000D03*
X109750000Y-75675000D03*
X110250000Y-75675000D03*
X110750000Y-75675000D03*
X111250000Y-75675000D03*
X111750000Y-75675000D03*
X112250000Y-75675000D03*
X112750000Y-75675000D03*
D27*
X114675000Y-73750000D03*
X114675000Y-73250000D03*
X114675000Y-72750000D03*
X114675000Y-72250000D03*
X114675000Y-71750000D03*
X114675000Y-71250000D03*
X114675000Y-70750000D03*
X114675000Y-70250000D03*
X114675000Y-69750000D03*
X114675000Y-69250000D03*
X114675000Y-68750000D03*
X114675000Y-68250000D03*
X114675000Y-67750000D03*
X114675000Y-67250000D03*
X114675000Y-66750000D03*
X114675000Y-66250000D03*
D28*
X112750000Y-64325000D03*
X112250000Y-64325000D03*
X111750000Y-64325000D03*
X111250000Y-64325000D03*
X110750000Y-64325000D03*
X110250000Y-64325000D03*
X109750000Y-64325000D03*
X109250000Y-64325000D03*
X108750000Y-64325000D03*
X108250000Y-64325000D03*
X107750000Y-64325000D03*
X107250000Y-64325000D03*
X106750000Y-64325000D03*
X106250000Y-64325000D03*
X105750000Y-64325000D03*
X105250000Y-64325000D03*
%TD*%
D29*
%TO.C,C2*%
X105384000Y-61976000D03*
X106934000Y-61976000D03*
%TD*%
D30*
%TO.C,J17*%
X80500000Y-76000000D03*
D18*
X80500000Y-78500000D03*
%TD*%
D13*
%TO.C,D3*%
X162575000Y-88000000D03*
X161000000Y-88000000D03*
%TD*%
D20*
%TO.C,C8*%
X150000000Y-61225000D03*
X150000000Y-62775000D03*
%TD*%
D14*
%TO.C,J3*%
X121920000Y-76000000D03*
D15*
X124460000Y-76000000D03*
X127000000Y-76000000D03*
X129540000Y-76000000D03*
X132080000Y-76000000D03*
%TD*%
D30*
%TO.C,J16*%
X80500000Y-61500000D03*
D18*
X80500000Y-64000000D03*
%TD*%
D31*
%TO.C,R3*%
X96350000Y-72000000D03*
X98000000Y-72000000D03*
%TD*%
D16*
%TO.C,U2*%
X94475000Y-66905000D03*
X94475000Y-65635000D03*
X94475000Y-64365000D03*
X94475000Y-63095000D03*
X89525000Y-63095000D03*
X89525000Y-64365000D03*
X89525000Y-65635000D03*
X89525000Y-66905000D03*
%TD*%
D11*
%TO.C,J12*%
X88750000Y-51500000D03*
D12*
X86250000Y-51500000D03*
X83750000Y-51500000D03*
X81250000Y-51500000D03*
%TD*%
D13*
%TO.C,D4*%
X162575000Y-90000000D03*
X161000000Y-90000000D03*
%TD*%
D20*
%TO.C,C9*%
X137000000Y-61225000D03*
X137000000Y-62775000D03*
%TD*%
D17*
%TO.C,J7*%
X159500000Y-63250000D03*
D18*
X159500000Y-60750000D03*
%TD*%
D29*
%TO.C,C5*%
X115225000Y-76000000D03*
X116775000Y-76000000D03*
%TD*%
D23*
%TO.C,H3*%
X163600000Y-44000000D03*
X164302944Y-42302944D03*
X164302944Y-45697056D03*
X166000000Y-41600000D03*
D24*
X166000000Y-44000000D03*
D23*
X166000000Y-46400000D03*
X167697056Y-42302944D03*
X167697056Y-45697056D03*
X168400000Y-44000000D03*
%TD*%
D31*
%TO.C,R2*%
X96350000Y-59000000D03*
X98000000Y-59000000D03*
%TD*%
M02*
