%TF.GenerationSoftware,KiCad,Pcbnew,9.0.1*%
%TF.CreationDate,2025-05-30T13:12:11+09:00*%
%TF.ProjectId,Altair_MDD_V3,416c7461-6972-45f4-9d44-445f56332e6b,rev?*%
%TF.SameCoordinates,Original*%
%TF.FileFunction,Copper,L2,Bot*%
%TF.FilePolarity,Positive*%
%FSLAX46Y46*%
G04 Gerber Fmt 4.6, Leading zero omitted, Abs format (unit mm)*
G04 Created by KiCad (PCBNEW 9.0.1) date 2025-05-30 13:12:11*
%MOMM*%
%LPD*%
G01*
G04 APERTURE LIST*
G04 Aperture macros list*
%AMRoundRect*
0 Rectangle with rounded corners*
0 $1 Rounding radius*
0 $2 $3 $4 $5 $6 $7 $8 $9 X,Y pos of 4 corners*
0 Add a 4 corners polygon primitive as box body*
4,1,4,$2,$3,$4,$5,$6,$7,$8,$9,$2,$3,0*
0 Add four circle primitives for the rounded corners*
1,1,$1+$1,$2,$3*
1,1,$1+$1,$4,$5*
1,1,$1+$1,$6,$7*
1,1,$1+$1,$8,$9*
0 Add four rect primitives between the rounded corners*
20,1,$1+$1,$2,$3,$4,$5,0*
20,1,$1+$1,$4,$5,$6,$7,0*
20,1,$1+$1,$6,$7,$8,$9,0*
20,1,$1+$1,$8,$9,$2,$3,0*%
G04 Aperture macros list end*
%TA.AperFunction,ComponentPad*%
%ADD10RoundRect,0.250000X0.600000X0.725000X-0.600000X0.725000X-0.600000X-0.725000X0.600000X-0.725000X0*%
%TD*%
%TA.AperFunction,ComponentPad*%
%ADD11O,1.700000X1.950000*%
%TD*%
%TA.AperFunction,ComponentPad*%
%ADD12R,1.700000X1.700000*%
%TD*%
%TA.AperFunction,ComponentPad*%
%ADD13C,1.700000*%
%TD*%
%TA.AperFunction,ComponentPad*%
%ADD14RoundRect,0.250000X0.725000X-0.600000X0.725000X0.600000X-0.725000X0.600000X-0.725000X-0.600000X0*%
%TD*%
%TA.AperFunction,ComponentPad*%
%ADD15O,1.950000X1.700000*%
%TD*%
%TA.AperFunction,ComponentPad*%
%ADD16RoundRect,0.250000X-0.600000X-0.725000X0.600000X-0.725000X0.600000X0.725000X-0.600000X0.725000X0*%
%TD*%
%TA.AperFunction,ComponentPad*%
%ADD17C,0.800000*%
%TD*%
%TA.AperFunction,ComponentPad*%
%ADD18C,6.400000*%
%TD*%
%TA.AperFunction,ComponentPad*%
%ADD19RoundRect,0.250000X-0.725000X0.600000X-0.725000X-0.600000X0.725000X-0.600000X0.725000X0.600000X0*%
%TD*%
%TA.AperFunction,ViaPad*%
%ADD20C,0.600000*%
%TD*%
%TA.AperFunction,Conductor*%
%ADD21C,0.200000*%
%TD*%
G04 APERTURE END LIST*
D10*
%TO.P,J13,1,Pin_1*%
%TO.N,GND*%
X102750000Y-51500000D03*
D11*
%TO.P,J13,2,Pin_2*%
%TO.N,+5V*%
X100250000Y-51500000D03*
%TO.P,J13,3,Pin_3*%
%TO.N,MD2_A*%
X97750000Y-51500000D03*
%TO.P,J13,4,Pin_4*%
%TO.N,MD2_B*%
X95250000Y-51500000D03*
%TD*%
D12*
%TO.P,J2,1,Pin_1*%
%TO.N,+3.3V*%
X129000000Y-61460000D03*
D13*
%TO.P,J2,2,Pin_2*%
%TO.N,SW*%
X129000000Y-64000000D03*
%TD*%
D14*
%TO.P,J6,1,Pin_1*%
%TO.N,+5V*%
X159500000Y-54250000D03*
D15*
%TO.P,J6,2,Pin_2*%
%TO.N,GND*%
X159500000Y-51750000D03*
%TD*%
D10*
%TO.P,J11,1,Pin_1*%
%TO.N,+3.3V*%
X150250000Y-51500000D03*
D11*
%TO.P,J11,2,Pin_2*%
%TO.N,limitswitch4*%
X147750000Y-51500000D03*
%TD*%
D10*
%TO.P,J10,1,Pin_1*%
%TO.N,+3.3V*%
X141250000Y-51500000D03*
D11*
%TO.P,J10,2,Pin_2*%
%TO.N,limitswitch3*%
X138750000Y-51500000D03*
%TD*%
D16*
%TO.P,J20,1,Pin_1*%
%TO.N,encoder1_A*%
X81250000Y-88500000D03*
D11*
%TO.P,J20,2,Pin_2*%
%TO.N,+5V*%
X83750000Y-88500000D03*
%TO.P,J20,3,Pin_3*%
%TO.N,encoder1_B*%
X86250000Y-88500000D03*
%TO.P,J20,4,Pin_4*%
%TO.N,GND*%
X88750000Y-88500000D03*
%TD*%
D10*
%TO.P,J14,1,Pin_1*%
%TO.N,GND*%
X116750000Y-51500000D03*
D11*
%TO.P,J14,2,Pin_2*%
%TO.N,+5V*%
X114250000Y-51500000D03*
%TO.P,J14,3,Pin_3*%
%TO.N,MD3_A*%
X111750000Y-51500000D03*
%TO.P,J14,4,Pin_4*%
%TO.N,MD3_B*%
X109250000Y-51500000D03*
%TD*%
D17*
%TO.P,H2,1*%
%TO.N,N/C*%
X71600000Y-44000000D03*
X72302944Y-42302944D03*
X72302944Y-45697056D03*
X74000000Y-41600000D03*
D18*
X74000000Y-44000000D03*
D17*
X74000000Y-46400000D03*
X75697056Y-42302944D03*
X75697056Y-45697056D03*
X76400000Y-44000000D03*
%TD*%
D14*
%TO.P,J18,1,Pin_1*%
%TO.N,+5V*%
X165000000Y-80500000D03*
D15*
%TO.P,J18,2,Pin_2*%
%TO.N,GND*%
X165000000Y-78000000D03*
%TO.P,J18,3,Pin_3*%
%TO.N,serial2_tx*%
X165000000Y-75500000D03*
%TO.P,J18,4,Pin_4*%
%TO.N,serial2_rx*%
X165000000Y-73000000D03*
%TD*%
D16*
%TO.P,J23,1,Pin_1*%
%TO.N,encoder4_A*%
X123250000Y-88500000D03*
D11*
%TO.P,J23,2,Pin_2*%
%TO.N,+5V*%
X125750000Y-88500000D03*
%TO.P,J23,3,Pin_3*%
%TO.N,encoder4_B*%
X128250000Y-88500000D03*
%TO.P,J23,4,Pin_4*%
%TO.N,GND*%
X130750000Y-88500000D03*
%TD*%
D12*
%TO.P,J4,1,Pin_1*%
%TO.N,can1_H*%
X90460000Y-59000000D03*
D13*
%TO.P,J4,2,Pin_2*%
%TO.N,Net-(J4-Pin_2)*%
X93000000Y-59000000D03*
%TD*%
D14*
%TO.P,J19,1,Pin_1*%
%TO.N,+5V*%
X156000000Y-80500000D03*
D15*
%TO.P,J19,2,Pin_2*%
%TO.N,GND*%
X156000000Y-78000000D03*
%TO.P,J19,3,Pin_3*%
%TO.N,serial3_rx*%
X156000000Y-75500000D03*
%TO.P,J19,4,Pin_4*%
%TO.N,serial3_tx*%
X156000000Y-73000000D03*
%TD*%
D12*
%TO.P,J1,1,Pin_1*%
%TO.N,+3.3V*%
X124000000Y-61460000D03*
D13*
%TO.P,J1,2,Pin_2*%
%TO.N,booto*%
X124000000Y-64000000D03*
%TD*%
D16*
%TO.P,J9,1,Pin_1*%
%TO.N,+3.3V*%
X148300000Y-88500000D03*
D11*
%TO.P,J9,2,Pin_2*%
%TO.N,limitswitch2*%
X150800000Y-88500000D03*
%TD*%
D10*
%TO.P,J15,1,Pin_1*%
%TO.N,GND*%
X130750000Y-51500000D03*
D11*
%TO.P,J15,2,Pin_2*%
%TO.N,+5V*%
X128250000Y-51500000D03*
%TO.P,J15,3,Pin_3*%
%TO.N,MD4_A*%
X125750000Y-51500000D03*
%TO.P,J15,4,Pin_4*%
%TO.N,MD4_B*%
X123250000Y-51500000D03*
%TD*%
D17*
%TO.P,H1,1*%
%TO.N,N/C*%
X71600000Y-96000000D03*
X72302944Y-94302944D03*
X72302944Y-97697056D03*
X74000000Y-93600000D03*
D18*
X74000000Y-96000000D03*
D17*
X74000000Y-98400000D03*
X75697056Y-94302944D03*
X75697056Y-97697056D03*
X76400000Y-96000000D03*
%TD*%
D12*
%TO.P,J5,1,Pin_1*%
%TO.N,can2_H*%
X91000000Y-72000000D03*
D13*
%TO.P,J5,2,Pin_2*%
%TO.N,Net-(J5-Pin_2)*%
X93540000Y-72000000D03*
%TD*%
D16*
%TO.P,J21,1,Pin_1*%
%TO.N,encoder2_A*%
X95250000Y-88500000D03*
D11*
%TO.P,J21,2,Pin_2*%
%TO.N,+5V*%
X97750000Y-88500000D03*
%TO.P,J21,3,Pin_3*%
%TO.N,encoder2_B*%
X100250000Y-88500000D03*
%TO.P,J21,4,Pin_4*%
%TO.N,GND*%
X102750000Y-88500000D03*
%TD*%
D16*
%TO.P,J22,1,Pin_1*%
%TO.N,encoder3_A*%
X109250000Y-88500000D03*
D11*
%TO.P,J22,2,Pin_2*%
%TO.N,+5V*%
X111750000Y-88500000D03*
%TO.P,J22,3,Pin_3*%
%TO.N,encoder3_B*%
X114250000Y-88500000D03*
%TO.P,J22,4,Pin_4*%
%TO.N,GND*%
X116750000Y-88500000D03*
%TD*%
D16*
%TO.P,J8,1,Pin_1*%
%TO.N,+3.3V*%
X138750000Y-88500000D03*
D11*
%TO.P,J8,2,Pin_2*%
%TO.N,limitswitch1*%
X141250000Y-88500000D03*
%TD*%
D17*
%TO.P,H4,1*%
%TO.N,N/C*%
X163600000Y-96000000D03*
X164302944Y-94302944D03*
X164302944Y-97697056D03*
X166000000Y-93600000D03*
D18*
X166000000Y-96000000D03*
D17*
X166000000Y-98400000D03*
X167697056Y-94302944D03*
X167697056Y-97697056D03*
X168400000Y-96000000D03*
%TD*%
D19*
%TO.P,J17,1,Pin_1*%
%TO.N,can2_H*%
X80500000Y-76000000D03*
D15*
%TO.P,J17,2,Pin_2*%
%TO.N,can2_L*%
X80500000Y-78500000D03*
%TD*%
D12*
%TO.P,J3,1,Pin_1*%
%TO.N,+3.3V*%
X121920000Y-76000000D03*
D13*
%TO.P,J3,2,Pin_2*%
%TO.N,SWCLK*%
X124460000Y-76000000D03*
%TO.P,J3,3,Pin_3*%
%TO.N,GND*%
X127000000Y-76000000D03*
%TO.P,J3,4,Pin_4*%
%TO.N,SWDIO*%
X129540000Y-76000000D03*
%TO.P,J3,5,Pin_5*%
%TO.N,nrst*%
X132080000Y-76000000D03*
%TD*%
D19*
%TO.P,J16,1,Pin_1*%
%TO.N,can1_H*%
X80500000Y-61500000D03*
D15*
%TO.P,J16,2,Pin_2*%
%TO.N,can1_L*%
X80500000Y-64000000D03*
%TD*%
D10*
%TO.P,J12,1,Pin_1*%
%TO.N,GND*%
X88750000Y-51500000D03*
D11*
%TO.P,J12,2,Pin_2*%
%TO.N,+5V*%
X86250000Y-51500000D03*
%TO.P,J12,3,Pin_3*%
%TO.N,MD1_A*%
X83750000Y-51500000D03*
%TO.P,J12,4,Pin_4*%
%TO.N,MD1_B*%
X81250000Y-51500000D03*
%TD*%
D14*
%TO.P,J7,1,Pin_1*%
%TO.N,+5V*%
X159500000Y-63250000D03*
D15*
%TO.P,J7,2,Pin_2*%
%TO.N,GND*%
X159500000Y-60750000D03*
%TD*%
D17*
%TO.P,H3,1*%
%TO.N,N/C*%
X163600000Y-44000000D03*
X164302944Y-42302944D03*
X164302944Y-45697056D03*
X166000000Y-41600000D03*
D18*
X166000000Y-44000000D03*
D17*
X166000000Y-46400000D03*
X167697056Y-42302944D03*
X167697056Y-45697056D03*
X168400000Y-44000000D03*
%TD*%
D20*
%TO.N,GND*%
X114730300Y-78575300D03*
X153708000Y-62296400D03*
X106934000Y-60989700D03*
X104105800Y-60746700D03*
%TO.N,+3.3V*%
X113517600Y-75675000D03*
X119065100Y-66357300D03*
X98281500Y-65355800D03*
X99569100Y-70523100D03*
%TO.N,booto*%
X114814400Y-62763200D03*
%TO.N,SW*%
X105495200Y-69712500D03*
%TO.N,limitswitch1*%
X104603000Y-69817400D03*
%TO.N,limitswitch2*%
X100089400Y-69194600D03*
%TO.N,limitswitch3*%
X104659300Y-70750000D03*
%TO.N,limitswitch4*%
X106741000Y-71730500D03*
%TO.N,MD1_A*%
X108819200Y-68920300D03*
%TO.N,MD1_B*%
X108647700Y-67978800D03*
%TO.N,MD2_B*%
X110648200Y-68419400D03*
%TO.N,MD2_A*%
X109848000Y-68196500D03*
%TO.N,MD3_A*%
X107877400Y-77733400D03*
%TO.N,MD3_B*%
X108356800Y-77019300D03*
%TO.N,MD4_B*%
X115396500Y-65221600D03*
%TO.N,MD4_A*%
X112234300Y-65849900D03*
%TO.N,serial2_tx*%
X105239100Y-73750000D03*
%TO.N,serial2_rx*%
X104525400Y-74869400D03*
%TO.N,encoder1_A*%
X94643100Y-74624900D03*
%TO.N,encoder1_B*%
X82188600Y-86700400D03*
X92579000Y-75473800D03*
%TO.N,encoder2_A*%
X107237000Y-65606700D03*
%TO.N,encoder2_B*%
X108058600Y-63026800D03*
%TO.N,encoder3_B*%
X117201800Y-77797700D03*
%TO.N,encoder3_A*%
X110058800Y-69527500D03*
%TO.N,encoder4_A*%
X116604200Y-69574400D03*
X110881000Y-62994200D03*
X117926700Y-78476100D03*
%TO.N,encoder4_B*%
X114066600Y-63505900D03*
%TO.N,can1_tx*%
X103434900Y-65076700D03*
X95937300Y-66426200D03*
%TO.N,can1_rx*%
X115956500Y-68250000D03*
X123425400Y-58566100D03*
%TO.N,can2_tx*%
X107847500Y-68007300D03*
X92970700Y-79793100D03*
%TD*%
D21*
%TO.N,GND*%
X129000000Y-78000000D02*
X154724900Y-78000000D01*
X116750000Y-88500000D02*
X115599900Y-88500000D01*
X155254400Y-60750000D02*
X153708000Y-62296400D01*
X153708000Y-62296400D02*
X156053700Y-62296400D01*
X158311700Y-49411600D02*
X132838400Y-49411600D01*
X165000000Y-78000000D02*
X165000000Y-76849900D01*
X159500000Y-60750000D02*
X155254400Y-60750000D01*
X132838400Y-49411600D02*
X130750000Y-51500000D01*
X103900100Y-88500000D02*
X105180800Y-87219300D01*
X118432900Y-49817100D02*
X116750000Y-51500000D01*
X114730300Y-87219300D02*
X115599900Y-88088900D01*
X159500000Y-51750000D02*
X159500000Y-50599900D01*
X114730300Y-87219300D02*
X114730300Y-78575300D01*
X102750000Y-51500000D02*
X102750000Y-56805700D01*
X156000000Y-78000000D02*
X154724900Y-78000000D01*
X127000000Y-76000000D02*
X129000000Y-78000000D01*
X102750000Y-56805700D02*
X105398400Y-59454100D01*
X102750000Y-88500000D02*
X103900100Y-88500000D01*
X130750000Y-51500000D02*
X129067100Y-49817100D01*
X156053700Y-62296400D02*
X166299800Y-72542500D01*
X115599900Y-88088900D02*
X115599900Y-88500000D01*
X165434200Y-76849900D02*
X165000000Y-76849900D01*
X105398400Y-59454100D02*
X104105800Y-60746700D01*
X166299800Y-75984300D02*
X165434200Y-76849900D01*
X166299800Y-72542500D02*
X166299800Y-75984300D01*
X159500000Y-50599900D02*
X158311700Y-49411600D01*
X105398400Y-59454100D02*
X106934000Y-60989700D01*
X129067100Y-49817100D02*
X118432900Y-49817100D01*
X105180800Y-87219300D02*
X114730300Y-87219300D01*
%TO.N,+3.3V*%
X121920000Y-76000000D02*
X120769900Y-76000000D01*
X121920000Y-76000000D02*
X123070100Y-76000000D01*
X141769100Y-89779300D02*
X142408700Y-89139700D01*
X124000000Y-61460000D02*
X124000000Y-62610100D01*
X133252300Y-78746000D02*
X142408700Y-87902400D01*
X120769900Y-76000000D02*
X120444900Y-75675000D01*
X142408700Y-88500000D02*
X148300000Y-88500000D01*
X140029300Y-89779300D02*
X141769100Y-89779300D01*
X124000000Y-62610100D02*
X122812300Y-62610100D01*
X125528500Y-78746000D02*
X133252300Y-78746000D01*
X142408700Y-87902400D02*
X142408700Y-88500000D01*
X98281500Y-69235500D02*
X98281500Y-65355800D01*
X123070100Y-76287600D02*
X125528500Y-78746000D01*
X122812300Y-62610100D02*
X119065100Y-66357300D01*
X142408700Y-89139700D02*
X142408700Y-88500000D01*
X120444900Y-75675000D02*
X113517600Y-75675000D01*
X138750000Y-88500000D02*
X140029300Y-89779300D01*
X123070100Y-76000000D02*
X123070100Y-76287600D01*
X99569100Y-70523100D02*
X98281500Y-69235500D01*
%TO.N,+5V*%
X129400100Y-52266400D02*
X129400100Y-51500000D01*
X111832800Y-49781700D02*
X100386900Y-49781700D01*
X84900100Y-88931300D02*
X85759900Y-89791100D01*
X99152400Y-90241800D02*
X109624400Y-90241800D01*
X84900100Y-88500000D02*
X84900100Y-88931300D01*
X96599900Y-89266300D02*
X96599900Y-88500000D01*
X166749900Y-70499900D02*
X159500000Y-63250000D01*
X97839900Y-49808700D02*
X88325000Y-49808700D01*
X97410600Y-88500000D02*
X99152400Y-90241800D01*
X97750000Y-88500000D02*
X97410600Y-88500000D01*
X155061700Y-49811700D02*
X138119300Y-49811700D01*
X111750000Y-88500000D02*
X110599900Y-88500000D01*
X96075100Y-89791100D02*
X96599900Y-89266300D01*
X100250000Y-51500000D02*
X99099900Y-51500000D01*
X109624400Y-90241800D02*
X110599900Y-89266300D01*
X128250000Y-51500000D02*
X129400100Y-51500000D01*
X85759900Y-89791100D02*
X96075100Y-89791100D01*
X114250000Y-51500000D02*
X113099900Y-51500000D01*
X159500000Y-54250000D02*
X155061700Y-49811700D01*
X112900100Y-88500000D02*
X112900100Y-89009400D01*
X113099900Y-51500000D02*
X113099900Y-51048800D01*
X111750000Y-88500000D02*
X112900100Y-88500000D01*
X99099900Y-51068700D02*
X97839900Y-49808700D01*
X113099900Y-51048800D02*
X111832800Y-49781700D01*
X166749900Y-78750100D02*
X166749900Y-70499900D01*
X100386900Y-49781700D02*
X99099900Y-51068700D01*
X83750000Y-88500000D02*
X84900100Y-88500000D01*
X99099900Y-51500000D02*
X99099900Y-51068700D01*
X112900100Y-89009400D02*
X114084300Y-90193600D01*
X138119300Y-49811700D02*
X135128300Y-52802700D01*
X86250000Y-51500000D02*
X87400100Y-51500000D01*
X114084300Y-90193600D02*
X123697000Y-90193600D01*
X125750000Y-88500000D02*
X124599900Y-88500000D01*
X165000000Y-80500000D02*
X166749900Y-78750100D01*
X165000000Y-80500000D02*
X156000000Y-80500000D01*
X135128300Y-52802700D02*
X129936400Y-52802700D01*
X129936400Y-52802700D02*
X129400100Y-52266400D01*
X87400100Y-50733600D02*
X87400100Y-51500000D01*
X88325000Y-49808700D02*
X87400100Y-50733600D01*
X97410600Y-88500000D02*
X96599900Y-88500000D01*
X124599900Y-89290700D02*
X124599900Y-88500000D01*
X110599900Y-89266300D02*
X110599900Y-88500000D01*
X123697000Y-90193600D02*
X124599900Y-89290700D01*
%TO.N,booto*%
X118816300Y-66991700D02*
X114814400Y-62989800D01*
X121008300Y-66991700D02*
X118816300Y-66991700D01*
X124000000Y-64000000D02*
X121008300Y-66991700D01*
X114814400Y-62989800D02*
X114814400Y-62763200D01*
%TO.N,SW*%
X122425300Y-70574700D02*
X113285200Y-70574700D01*
X112131900Y-71728000D02*
X107587200Y-71728000D01*
X129000000Y-64000000D02*
X122425300Y-70574700D01*
X105571700Y-69712500D02*
X105495200Y-69712500D01*
X113285200Y-70574700D02*
X112131900Y-71728000D01*
X107587200Y-71728000D02*
X105571700Y-69712500D01*
%TO.N,can1_H*%
X86809900Y-61500000D02*
X89309900Y-59000000D01*
X90460000Y-59000000D02*
X89309900Y-59000000D01*
X80500000Y-61500000D02*
X86809900Y-61500000D01*
%TO.N,can2_H*%
X80500000Y-76000000D02*
X85849900Y-76000000D01*
X91000000Y-72000000D02*
X89849900Y-72000000D01*
X85849900Y-76000000D02*
X89849900Y-72000000D01*
%TO.N,limitswitch1*%
X103909300Y-75124100D02*
X103909300Y-70511100D01*
X110803400Y-75869700D02*
X104654900Y-75869700D01*
X120107200Y-79242000D02*
X117171400Y-76306200D01*
X111239900Y-76306200D02*
X110803400Y-75869700D01*
X104654900Y-75869700D02*
X103909300Y-75124100D01*
X140099900Y-88500000D02*
X140099900Y-87709300D01*
X140099900Y-87709300D02*
X131632600Y-79242000D01*
X103909300Y-70511100D02*
X104603000Y-69817400D01*
X131632600Y-79242000D02*
X120107200Y-79242000D01*
X117171400Y-76306200D02*
X111239900Y-76306200D01*
X141250000Y-88500000D02*
X140099900Y-88500000D01*
%TO.N,limitswitch2*%
X82564700Y-87881100D02*
X91867200Y-78578600D01*
X100169200Y-69274400D02*
X100089400Y-69194600D01*
X91867200Y-78578600D02*
X92362300Y-78578600D01*
X84166600Y-90673800D02*
X82564700Y-89071900D01*
X150800000Y-88500000D02*
X149649900Y-88500000D01*
X82564700Y-89071900D02*
X82564700Y-87881100D01*
X148266800Y-90673800D02*
X84166600Y-90673800D01*
X100169200Y-70771700D02*
X100169200Y-69274400D01*
X149649900Y-89290700D02*
X148266800Y-90673800D01*
X149649900Y-88500000D02*
X149649900Y-89290700D01*
X92362300Y-78578600D02*
X100169200Y-70771700D01*
%TO.N,limitswitch3*%
X106437500Y-72528200D02*
X104659300Y-70750000D01*
X113298000Y-72528200D02*
X106437500Y-72528200D01*
X138750000Y-56457900D02*
X123833000Y-71374900D01*
X123833000Y-71374900D02*
X114451300Y-71374900D01*
X114451300Y-71374900D02*
X113298000Y-72528200D01*
X138750000Y-51500000D02*
X138750000Y-56457900D01*
%TO.N,limitswitch4*%
X123667300Y-70974800D02*
X113451100Y-70974800D01*
X130613700Y-64028400D02*
X123667300Y-70974800D01*
X146599900Y-51500000D02*
X145311800Y-50211900D01*
X113451100Y-70974800D02*
X112297800Y-72128100D01*
X145311800Y-50211900D02*
X138285000Y-50211900D01*
X107138600Y-72128100D02*
X106741000Y-71730500D01*
X138285000Y-50211900D02*
X130613700Y-57883200D01*
X130613700Y-57883200D02*
X130613700Y-64028400D01*
X112297800Y-72128100D02*
X107138600Y-72128100D01*
X147750000Y-51500000D02*
X146599900Y-51500000D01*
%TO.N,MD1_A*%
X93520100Y-53576400D02*
X104550200Y-64606500D01*
X108628900Y-66990100D02*
X109247900Y-67609100D01*
X86525300Y-53576400D02*
X93520100Y-53576400D01*
X104550200Y-64606500D02*
X107651300Y-64606500D01*
X83750000Y-51500000D02*
X84900100Y-51500000D01*
X84900100Y-51500000D02*
X84900100Y-51951200D01*
X108628900Y-65584100D02*
X108628900Y-66990100D01*
X107651300Y-64606500D02*
X108628900Y-65584100D01*
X84900100Y-51951200D02*
X86525300Y-53576400D01*
X109247900Y-68491600D02*
X108819200Y-68920300D01*
X109247900Y-67609100D02*
X109247900Y-68491600D01*
%TO.N,MD1_B*%
X108228800Y-65749800D02*
X108228800Y-67438800D01*
X82400100Y-51500000D02*
X82400100Y-51951200D01*
X108228800Y-67438800D02*
X108647700Y-67857700D01*
X94190800Y-54812900D02*
X104384500Y-65006600D01*
X107485600Y-65006600D02*
X108228800Y-65749800D01*
X104384500Y-65006600D02*
X107485600Y-65006600D01*
X81250000Y-51500000D02*
X82400100Y-51500000D01*
X108647700Y-67857700D02*
X108647700Y-67978800D01*
X82400100Y-51951200D02*
X85261800Y-54812900D01*
X85261800Y-54812900D02*
X94190800Y-54812900D01*
%TO.N,MD2_B*%
X105820300Y-61643900D02*
X109429100Y-65252700D01*
X104118800Y-61643900D02*
X105820300Y-61643900D01*
X109429100Y-66658700D02*
X110648200Y-67877800D01*
X109429100Y-65252700D02*
X109429100Y-66658700D01*
X110648200Y-67877800D02*
X110648200Y-68419400D01*
X95250000Y-52775100D02*
X104118800Y-61643900D01*
X95250000Y-51500000D02*
X95250000Y-52775100D01*
%TO.N,MD2_A*%
X109029000Y-65418400D02*
X109029000Y-66824400D01*
X95740100Y-50208900D02*
X94747200Y-50208900D01*
X94747200Y-50208900D02*
X94068500Y-50887600D01*
X109029000Y-66824400D02*
X109848000Y-67643400D01*
X94068500Y-50887600D02*
X94068500Y-52159400D01*
X97750000Y-51500000D02*
X96599900Y-51500000D01*
X96599900Y-51500000D02*
X96599900Y-51068700D01*
X107817000Y-64206400D02*
X109029000Y-65418400D01*
X96599900Y-51068700D02*
X95740100Y-50208900D01*
X109848000Y-67643400D02*
X109848000Y-68196500D01*
X106115500Y-64206400D02*
X107817000Y-64206400D01*
X94068500Y-52159400D02*
X106115500Y-64206400D01*
%TO.N,MD3_A*%
X110268500Y-66366500D02*
X111707600Y-67805600D01*
X108799900Y-50181800D02*
X108071000Y-50910700D01*
X106085100Y-68273500D02*
X104133500Y-68273500D01*
X104133500Y-68273500D02*
X102550200Y-69856800D01*
X102550200Y-69856800D02*
X102550200Y-75556100D01*
X108071000Y-50910700D02*
X108071000Y-61692000D01*
X110431800Y-50181800D02*
X108799900Y-50181800D01*
X108071000Y-61692000D02*
X110268500Y-63889500D01*
X111707600Y-67805600D02*
X111707600Y-69293200D01*
X110473100Y-70527700D02*
X108339300Y-70527700D01*
X102550200Y-75556100D02*
X104727500Y-77733400D01*
X108339300Y-70527700D02*
X106085100Y-68273500D01*
X111750000Y-51500000D02*
X110431800Y-50181800D01*
X111707600Y-69293200D02*
X110473100Y-70527700D01*
X110268500Y-63889500D02*
X110268500Y-66366500D01*
X104727500Y-77733400D02*
X107877400Y-77733400D01*
%TO.N,MD3_B*%
X104630500Y-77019300D02*
X108356800Y-77019300D01*
X112125900Y-69440700D02*
X110638800Y-70927800D01*
X109250000Y-51500000D02*
X110400100Y-51500000D01*
X110809900Y-63865000D02*
X110809900Y-66342100D01*
X110809900Y-66342100D02*
X112125900Y-67658100D01*
X105919400Y-68673600D02*
X104299200Y-68673600D01*
X103001500Y-69971300D02*
X103001500Y-75390300D01*
X110400100Y-51500000D02*
X110400100Y-62626500D01*
X110638800Y-70927800D02*
X108173600Y-70927800D01*
X110280900Y-62745700D02*
X110280900Y-63336000D01*
X112125900Y-67658100D02*
X112125900Y-69440700D01*
X108173600Y-70927800D02*
X105919400Y-68673600D01*
X104299200Y-68673600D02*
X103001500Y-69971300D01*
X110400100Y-62626500D02*
X110280900Y-62745700D01*
X103001500Y-75390300D02*
X104630500Y-77019300D01*
X110280900Y-63336000D02*
X110809900Y-63865000D01*
%TO.N,MD4_B*%
X122825300Y-58814600D02*
X123201000Y-59190300D01*
X125172700Y-60419400D02*
X125172700Y-64454700D01*
X125172700Y-64454700D02*
X122232200Y-67395200D01*
X126908800Y-54234000D02*
X122825300Y-58317500D01*
X123250000Y-51500000D02*
X124532800Y-50217200D01*
X123201000Y-59190300D02*
X123943600Y-59190300D01*
X126270100Y-50217200D02*
X126908800Y-50855900D01*
X122825300Y-58317500D02*
X122825300Y-58814600D01*
X123943600Y-59190300D02*
X125172700Y-60419400D01*
X124532800Y-50217200D02*
X126270100Y-50217200D01*
X122232200Y-67395200D02*
X117570100Y-67395200D01*
X126908800Y-50855900D02*
X126908800Y-54234000D01*
X117570100Y-67395200D02*
X115396500Y-65221600D01*
%TO.N,MD4_A*%
X112234400Y-64449800D02*
X112234400Y-65849900D01*
X124599900Y-52084300D02*
X112234400Y-64449800D01*
X112234400Y-65849900D02*
X112234300Y-65849900D01*
X125750000Y-51500000D02*
X124599900Y-51500000D01*
X124599900Y-51500000D02*
X124599900Y-52084300D01*
%TO.N,serial2_tx*%
X165000000Y-74349900D02*
X105839000Y-74349900D01*
X105839000Y-74349900D02*
X105239100Y-73750000D01*
X165000000Y-75500000D02*
X165000000Y-74349900D01*
%TO.N,serial2_rx*%
X105204100Y-72928300D02*
X113463700Y-72928300D01*
X113463700Y-72928300D02*
X114542100Y-71849900D01*
X104525400Y-73607000D02*
X105204100Y-72928300D01*
X114542100Y-71849900D02*
X165000000Y-71849900D01*
X165000000Y-73000000D02*
X165000000Y-71849900D01*
X104525400Y-74869400D02*
X104525400Y-73607000D01*
%TO.N,encoder1_A*%
X81250000Y-88500000D02*
X94643100Y-75106900D01*
X94643100Y-75106900D02*
X94643100Y-74624900D01*
%TO.N,encoder1_B*%
X82188600Y-85864200D02*
X92579000Y-75473800D01*
X82188600Y-86700400D02*
X82188600Y-85864200D01*
%TO.N,encoder2_A*%
X92362300Y-79144400D02*
X100569300Y-70937400D01*
X104537100Y-65606700D02*
X107237000Y-65606700D01*
X100569300Y-69574500D02*
X104537100Y-65606700D01*
X92362300Y-85612300D02*
X92362300Y-79144400D01*
X95250000Y-88500000D02*
X92362300Y-85612300D01*
X100569300Y-70937400D02*
X100569300Y-69574500D01*
%TO.N,encoder2_B*%
X106250800Y-67873400D02*
X108505000Y-70127600D01*
X111255900Y-67919700D02*
X109868300Y-66532100D01*
X100250000Y-88500000D02*
X101400100Y-88500000D01*
X101769600Y-70071600D02*
X103967800Y-67873400D01*
X111255900Y-69179100D02*
X111255900Y-67919700D01*
X108505000Y-70127600D02*
X110307400Y-70127600D01*
X110307400Y-70127600D02*
X111255900Y-69179100D01*
X109868300Y-66532100D02*
X109868300Y-64836500D01*
X103967800Y-67873400D02*
X106250800Y-67873400D01*
X101400100Y-88500000D02*
X101400100Y-71804000D01*
X101400100Y-71804000D02*
X101769600Y-71434500D01*
X109868300Y-64836500D02*
X108058600Y-63026800D01*
X101769600Y-71434500D02*
X101769600Y-70071600D01*
%TO.N,encoder3_B*%
X117930900Y-89075100D02*
X117930900Y-79497200D01*
X117930900Y-79497200D02*
X117201800Y-78768100D01*
X117201800Y-78768100D02*
X117201800Y-77797700D01*
X117212500Y-89793500D02*
X117930900Y-89075100D01*
X114250000Y-88500000D02*
X115543500Y-89793500D01*
X115543500Y-89793500D02*
X117212500Y-89793500D01*
%TO.N,encoder3_A*%
X106464900Y-67473300D02*
X108519100Y-69527500D01*
X101369500Y-71268800D02*
X101369500Y-69905900D01*
X99084300Y-89149400D02*
X99084300Y-73554000D01*
X99750300Y-89815400D02*
X99084300Y-89149400D01*
X108519100Y-69527500D02*
X110058800Y-69527500D01*
X99084300Y-73554000D02*
X101369500Y-71268800D01*
X103802100Y-67473300D02*
X106464900Y-67473300D01*
X101369500Y-69905900D02*
X103802100Y-67473300D01*
X107934600Y-89815400D02*
X99750300Y-89815400D01*
X109250000Y-88500000D02*
X107934600Y-89815400D01*
%TO.N,encoder4_A*%
X115083400Y-69574400D02*
X111280600Y-65771600D01*
X111280600Y-63393800D02*
X110881000Y-62994200D01*
X111280600Y-65771600D02*
X111280600Y-63393800D01*
X123250000Y-83799400D02*
X123250000Y-88500000D01*
X117926700Y-78476100D02*
X123250000Y-83799400D01*
X116604200Y-69574400D02*
X115083400Y-69574400D01*
%TO.N,encoder4_B*%
X117255300Y-69800600D02*
X116881300Y-70174600D01*
X103448400Y-70090200D02*
X103448400Y-75270400D01*
X107959300Y-71327900D02*
X105705100Y-69073700D01*
X110441300Y-76273200D02*
X111344400Y-77176300D01*
X103448400Y-75270400D02*
X104451200Y-76273200D01*
X104451200Y-76273200D02*
X110441300Y-76273200D01*
X114066600Y-63505900D02*
X114066600Y-67213600D01*
X117475700Y-77176300D02*
X127099900Y-86800500D01*
X105705100Y-69073700D02*
X104464900Y-69073700D01*
X116852800Y-68974300D02*
X117255300Y-69376800D01*
X111966200Y-71327900D02*
X107959300Y-71327900D01*
X104464900Y-69073700D02*
X103448400Y-70090200D01*
X114066600Y-67213600D02*
X115827300Y-68974300D01*
X117255300Y-69376800D02*
X117255300Y-69800600D01*
X113119500Y-70174600D02*
X111966200Y-71327900D01*
X127099900Y-86800500D02*
X127099900Y-88500000D01*
X116881300Y-70174600D02*
X113119500Y-70174600D01*
X128250000Y-88500000D02*
X127099900Y-88500000D01*
X111344400Y-77176300D02*
X117475700Y-77176300D01*
X115827300Y-68974300D02*
X116852800Y-68974300D01*
%TO.N,can1_tx*%
X103113900Y-64755700D02*
X97607800Y-64755700D01*
X103434900Y-65076700D02*
X103113900Y-64755700D01*
X97607800Y-64755700D02*
X95937300Y-66426200D01*
%TO.N,can1_rx*%
X125572800Y-64620400D02*
X125572800Y-60230500D01*
X121943200Y-68250000D02*
X125572800Y-64620400D01*
X123908400Y-58566100D02*
X123425400Y-58566100D01*
X125572800Y-60230500D02*
X123908400Y-58566100D01*
X115956500Y-68250000D02*
X121943200Y-68250000D01*
%TO.N,can2_tx*%
X100969400Y-69740200D02*
X103636400Y-67073200D01*
X103636400Y-67073200D02*
X106913400Y-67073200D01*
X92970700Y-79793100D02*
X92970700Y-79101800D01*
X92970700Y-79101800D02*
X100969400Y-71103100D01*
X106913400Y-67073200D02*
X107847500Y-68007300D01*
X100969400Y-71103100D02*
X100969400Y-69740200D01*
%TD*%
%TA.AperFunction,Conductor*%
%TO.N,GND*%
G36*
X131399542Y-79862185D02*
G01*
X131420184Y-79878819D01*
X138354184Y-86812819D01*
X138387669Y-86874142D01*
X138382685Y-86943834D01*
X138340813Y-86999767D01*
X138275349Y-87024184D01*
X138266504Y-87024500D01*
X138099999Y-87024500D01*
X138099980Y-87024501D01*
X137997203Y-87035000D01*
X137997200Y-87035001D01*
X137830668Y-87090185D01*
X137830663Y-87090187D01*
X137681342Y-87182289D01*
X137557289Y-87306342D01*
X137465187Y-87455663D01*
X137465185Y-87455668D01*
X137460325Y-87470334D01*
X137410001Y-87622203D01*
X137410001Y-87622204D01*
X137410000Y-87622204D01*
X137399500Y-87724983D01*
X137399500Y-89275001D01*
X137399501Y-89275018D01*
X137410000Y-89377796D01*
X137410001Y-89377799D01*
X137453284Y-89508416D01*
X137465186Y-89544334D01*
X137557288Y-89693656D01*
X137681344Y-89817712D01*
X137723577Y-89843761D01*
X137770301Y-89895709D01*
X137781524Y-89964672D01*
X137753680Y-90028754D01*
X137695612Y-90067610D01*
X137658480Y-90073300D01*
X128898780Y-90073300D01*
X128831741Y-90053615D01*
X128785986Y-90000811D01*
X128776042Y-89931653D01*
X128805067Y-89868097D01*
X128842485Y-89838815D01*
X128865463Y-89827107D01*
X128957816Y-89780051D01*
X128979789Y-89764086D01*
X129129786Y-89655109D01*
X129129788Y-89655106D01*
X129129792Y-89655104D01*
X129280104Y-89504792D01*
X129280106Y-89504788D01*
X129280109Y-89504786D01*
X129405048Y-89332820D01*
X129405047Y-89332820D01*
X129405051Y-89332816D01*
X129501557Y-89143412D01*
X129567246Y-88941243D01*
X129600500Y-88731287D01*
X129600500Y-88268713D01*
X129567246Y-88058757D01*
X129501557Y-87856588D01*
X129405051Y-87667184D01*
X129405049Y-87667181D01*
X129405048Y-87667179D01*
X129280109Y-87495213D01*
X129129786Y-87344890D01*
X128957820Y-87219951D01*
X128768414Y-87123444D01*
X128768413Y-87123443D01*
X128768412Y-87123443D01*
X128566243Y-87057754D01*
X128566241Y-87057753D01*
X128566240Y-87057753D01*
X128396303Y-87030838D01*
X128356287Y-87024500D01*
X128143713Y-87024500D01*
X128109341Y-87029944D01*
X127933759Y-87057753D01*
X127862718Y-87080836D01*
X127792876Y-87082831D01*
X127733044Y-87046750D01*
X127702216Y-86984049D01*
X127700400Y-86962905D01*
X127700400Y-86721445D01*
X127700400Y-86721443D01*
X127659477Y-86568715D01*
X127625956Y-86510656D01*
X127625956Y-86510654D01*
X127580424Y-86431790D01*
X127580421Y-86431786D01*
X127580420Y-86431784D01*
X127468616Y-86319980D01*
X127468615Y-86319979D01*
X127464285Y-86315649D01*
X127464274Y-86315639D01*
X121202816Y-80054181D01*
X121169331Y-79992858D01*
X121174315Y-79923166D01*
X121216187Y-79867233D01*
X121281651Y-79842816D01*
X121290497Y-79842500D01*
X131332503Y-79842500D01*
X131399542Y-79862185D01*
G37*
%TD.AperFunction*%
%TA.AperFunction,Conductor*%
G36*
X102205803Y-76061384D02*
G01*
X102212281Y-76067416D01*
X104242639Y-78097774D01*
X104242649Y-78097785D01*
X104246979Y-78102115D01*
X104246980Y-78102116D01*
X104358784Y-78213920D01*
X104410345Y-78243688D01*
X104445595Y-78264039D01*
X104445597Y-78264041D01*
X104495713Y-78292976D01*
X104495715Y-78292977D01*
X104648442Y-78333900D01*
X104648443Y-78333900D01*
X107297634Y-78333900D01*
X107364673Y-78353585D01*
X107366525Y-78354798D01*
X107498214Y-78442790D01*
X107498227Y-78442797D01*
X107614944Y-78491142D01*
X107643903Y-78503137D01*
X107798553Y-78533899D01*
X107798556Y-78533900D01*
X107798558Y-78533900D01*
X107956244Y-78533900D01*
X107956245Y-78533899D01*
X108110897Y-78503137D01*
X108256579Y-78442794D01*
X108387689Y-78355189D01*
X108499189Y-78243689D01*
X108586794Y-78112579D01*
X108588202Y-78109181D01*
X108600467Y-78079566D01*
X108647137Y-77966897D01*
X108677900Y-77812242D01*
X108678145Y-77811012D01*
X108710530Y-77749101D01*
X108731694Y-77733248D01*
X108730913Y-77732079D01*
X108867089Y-77641089D01*
X108978586Y-77529592D01*
X108978589Y-77529589D01*
X109066194Y-77398479D01*
X109126537Y-77252797D01*
X109157300Y-77098142D01*
X109157300Y-76997700D01*
X109176985Y-76930661D01*
X109229789Y-76884906D01*
X109281300Y-76873700D01*
X110141203Y-76873700D01*
X110208242Y-76893385D01*
X110228884Y-76910019D01*
X110859539Y-77540674D01*
X110859549Y-77540685D01*
X110863879Y-77545015D01*
X110863880Y-77545016D01*
X110975684Y-77656820D01*
X111061496Y-77706363D01*
X111108061Y-77733248D01*
X111112615Y-77735877D01*
X111265342Y-77776800D01*
X111265343Y-77776800D01*
X116279696Y-77776800D01*
X116346735Y-77796485D01*
X116392490Y-77849289D01*
X116401313Y-77876609D01*
X116432061Y-78031189D01*
X116432064Y-78031201D01*
X116492402Y-78176872D01*
X116492409Y-78176885D01*
X116550646Y-78264041D01*
X116578284Y-78305405D01*
X116580402Y-78308574D01*
X116601280Y-78375251D01*
X116601300Y-78377465D01*
X116601300Y-78681430D01*
X116601299Y-78681448D01*
X116601299Y-78847154D01*
X116601298Y-78847154D01*
X116601299Y-78847157D01*
X116642223Y-78999885D01*
X116655778Y-79023363D01*
X116710888Y-79118817D01*
X116721281Y-79136817D01*
X116840149Y-79255685D01*
X116840155Y-79255690D01*
X117294081Y-79709616D01*
X117327566Y-79770939D01*
X117330400Y-79797297D01*
X117330400Y-88775003D01*
X117310715Y-88842042D01*
X117294081Y-88862684D01*
X117000084Y-89156681D01*
X116938761Y-89190166D01*
X116912403Y-89193000D01*
X115843597Y-89193000D01*
X115814156Y-89184355D01*
X115784170Y-89177832D01*
X115779154Y-89174077D01*
X115776558Y-89173315D01*
X115755916Y-89156681D01*
X115608261Y-89009026D01*
X115574776Y-88947703D01*
X115573469Y-88901951D01*
X115600500Y-88731287D01*
X115600500Y-88268713D01*
X115567246Y-88058757D01*
X115501557Y-87856588D01*
X115405051Y-87667184D01*
X115405049Y-87667181D01*
X115405048Y-87667179D01*
X115280109Y-87495213D01*
X115129786Y-87344890D01*
X114957820Y-87219951D01*
X114768414Y-87123444D01*
X114768413Y-87123443D01*
X114768412Y-87123443D01*
X114566243Y-87057754D01*
X114566241Y-87057753D01*
X114566240Y-87057753D01*
X114396303Y-87030838D01*
X114356287Y-87024500D01*
X114143713Y-87024500D01*
X114103697Y-87030838D01*
X113933760Y-87057753D01*
X113933757Y-87057754D01*
X113741354Y-87120270D01*
X113731585Y-87123444D01*
X113542179Y-87219951D01*
X113370213Y-87344890D01*
X113219894Y-87495209D01*
X113219890Y-87495214D01*
X113100318Y-87659793D01*
X113044989Y-87702459D01*
X112975375Y-87708438D01*
X112913580Y-87675833D01*
X112899682Y-87659793D01*
X112780109Y-87495214D01*
X112780105Y-87495209D01*
X112629786Y-87344890D01*
X112457820Y-87219951D01*
X112268414Y-87123444D01*
X112268413Y-87123443D01*
X112268412Y-87123443D01*
X112066243Y-87057754D01*
X112066241Y-87057753D01*
X112066240Y-87057753D01*
X111896303Y-87030838D01*
X111856287Y-87024500D01*
X111643713Y-87024500D01*
X111603697Y-87030838D01*
X111433760Y-87057753D01*
X111433757Y-87057754D01*
X111241354Y-87120270D01*
X111231585Y-87123444D01*
X111042179Y-87219951D01*
X110870215Y-87344889D01*
X110731398Y-87483706D01*
X110670075Y-87517190D01*
X110600383Y-87512206D01*
X110544450Y-87470334D01*
X110538178Y-87461120D01*
X110513973Y-87421878D01*
X110442712Y-87306344D01*
X110318656Y-87182288D01*
X110218108Y-87120270D01*
X110169336Y-87090187D01*
X110169331Y-87090185D01*
X110147138Y-87082831D01*
X110002797Y-87035001D01*
X110002795Y-87035000D01*
X109900010Y-87024500D01*
X108599998Y-87024500D01*
X108599981Y-87024501D01*
X108497203Y-87035000D01*
X108497200Y-87035001D01*
X108330668Y-87090185D01*
X108330663Y-87090187D01*
X108181342Y-87182289D01*
X108057289Y-87306342D01*
X107965187Y-87455663D01*
X107965185Y-87455668D01*
X107960325Y-87470334D01*
X107910001Y-87622203D01*
X107910001Y-87622204D01*
X107910000Y-87622204D01*
X107899500Y-87724983D01*
X107899500Y-88949900D01*
X107890856Y-88979336D01*
X107884333Y-89009326D01*
X107880577Y-89014343D01*
X107879815Y-89016939D01*
X107863182Y-89037581D01*
X107827511Y-89073253D01*
X107743304Y-89157461D01*
X107722184Y-89178581D01*
X107660861Y-89212066D01*
X107634502Y-89214900D01*
X101825632Y-89214900D01*
X101758593Y-89195215D01*
X101712838Y-89142411D01*
X101702894Y-89073253D01*
X101731919Y-89009697D01*
X101763630Y-88983513D01*
X101768816Y-88980520D01*
X101880620Y-88868716D01*
X101959677Y-88731784D01*
X102000600Y-88579057D01*
X102000600Y-76155097D01*
X102020285Y-76088058D01*
X102073089Y-76042303D01*
X102142247Y-76032359D01*
X102205803Y-76061384D01*
G37*
%TD.AperFunction*%
%TA.AperFunction,Conductor*%
G36*
X91681134Y-79716415D02*
G01*
X91737067Y-79758287D01*
X91761484Y-79823751D01*
X91761800Y-79832597D01*
X91761800Y-85525630D01*
X91761799Y-85525648D01*
X91761799Y-85691354D01*
X91761798Y-85691354D01*
X91802723Y-85844085D01*
X91831658Y-85894200D01*
X91831659Y-85894204D01*
X91831660Y-85894204D01*
X91881779Y-85981014D01*
X91881781Y-85981017D01*
X92000649Y-86099885D01*
X92000655Y-86099890D01*
X93863181Y-87962416D01*
X93896666Y-88023739D01*
X93899500Y-88050097D01*
X93899500Y-88579057D01*
X93899501Y-89066600D01*
X93879817Y-89133639D01*
X93827013Y-89179394D01*
X93775501Y-89190600D01*
X87656896Y-89190600D01*
X87589857Y-89170915D01*
X87544102Y-89118111D01*
X87534158Y-89048953D01*
X87538965Y-89028282D01*
X87567246Y-88941243D01*
X87600500Y-88731287D01*
X87600500Y-88268713D01*
X87567246Y-88058757D01*
X87501557Y-87856588D01*
X87405051Y-87667184D01*
X87405049Y-87667181D01*
X87405048Y-87667179D01*
X87280109Y-87495213D01*
X87129786Y-87344890D01*
X86957820Y-87219951D01*
X86768414Y-87123444D01*
X86768413Y-87123443D01*
X86768412Y-87123443D01*
X86566243Y-87057754D01*
X86566241Y-87057753D01*
X86566240Y-87057753D01*
X86396303Y-87030838D01*
X86356287Y-87024500D01*
X86143713Y-87024500D01*
X86103697Y-87030838D01*
X85933760Y-87057753D01*
X85933757Y-87057754D01*
X85741354Y-87120270D01*
X85731585Y-87123444D01*
X85542179Y-87219951D01*
X85370213Y-87344890D01*
X85219894Y-87495209D01*
X85219890Y-87495214D01*
X85100318Y-87659793D01*
X85044989Y-87702459D01*
X84975375Y-87708438D01*
X84913580Y-87675833D01*
X84899682Y-87659793D01*
X84780109Y-87495214D01*
X84780105Y-87495209D01*
X84629786Y-87344890D01*
X84457820Y-87219951D01*
X84356341Y-87168245D01*
X84305545Y-87120270D01*
X84288750Y-87052449D01*
X84311287Y-86986315D01*
X84324949Y-86970085D01*
X91550119Y-79744916D01*
X91611442Y-79711431D01*
X91681134Y-79716415D01*
G37*
%TD.AperFunction*%
%TA.AperFunction,Conductor*%
G36*
X107534996Y-50401885D02*
G01*
X107580751Y-50454689D01*
X107590695Y-50523847D01*
X107575345Y-50568198D01*
X107563809Y-50588180D01*
X107511423Y-50678915D01*
X107470499Y-50831643D01*
X107470499Y-50831645D01*
X107470499Y-50999746D01*
X107470500Y-50999759D01*
X107470500Y-61605330D01*
X107470499Y-61605348D01*
X107470499Y-61771054D01*
X107470498Y-61771054D01*
X107507729Y-61910001D01*
X107511423Y-61923785D01*
X107533529Y-61962073D01*
X107590479Y-62060714D01*
X107590481Y-62060717D01*
X107673138Y-62143374D01*
X107683233Y-62161863D01*
X107697314Y-62177538D01*
X107699643Y-62191915D01*
X107706623Y-62204697D01*
X107705120Y-62225711D01*
X107708490Y-62246508D01*
X107702678Y-62259860D01*
X107701639Y-62274389D01*
X107689012Y-62291255D01*
X107680605Y-62310571D01*
X107662127Y-62327168D01*
X107659767Y-62330322D01*
X107654348Y-62334157D01*
X107562389Y-62395603D01*
X107495712Y-62416481D01*
X107428332Y-62397997D01*
X107405817Y-62380182D01*
X106307890Y-61282255D01*
X106307888Y-61282252D01*
X106189017Y-61163381D01*
X106189009Y-61163375D01*
X106078373Y-61099500D01*
X106078372Y-61099499D01*
X106078372Y-61099500D01*
X106052085Y-61084323D01*
X105899357Y-61043399D01*
X105741243Y-61043399D01*
X105733647Y-61043399D01*
X105733631Y-61043400D01*
X104418897Y-61043400D01*
X104351858Y-61023715D01*
X104331216Y-61007081D01*
X96142196Y-52818061D01*
X96108711Y-52756738D01*
X96113695Y-52687046D01*
X96142192Y-52642703D01*
X96280104Y-52504792D01*
X96399683Y-52340204D01*
X96455011Y-52297540D01*
X96524624Y-52291561D01*
X96586420Y-52324166D01*
X96600313Y-52340199D01*
X96703925Y-52482809D01*
X96719896Y-52504792D01*
X96870213Y-52655109D01*
X97042179Y-52780048D01*
X97042181Y-52780049D01*
X97042184Y-52780051D01*
X97231588Y-52876557D01*
X97433757Y-52942246D01*
X97643713Y-52975500D01*
X97643714Y-52975500D01*
X97856286Y-52975500D01*
X97856287Y-52975500D01*
X98066243Y-52942246D01*
X98268412Y-52876557D01*
X98457816Y-52780051D01*
X98490701Y-52756159D01*
X98629786Y-52655109D01*
X98629788Y-52655106D01*
X98629792Y-52655104D01*
X98780104Y-52504792D01*
X98899683Y-52340204D01*
X98955011Y-52297540D01*
X99024624Y-52291561D01*
X99086420Y-52324166D01*
X99100313Y-52340199D01*
X99203925Y-52482809D01*
X99219896Y-52504792D01*
X99370213Y-52655109D01*
X99542179Y-52780048D01*
X99542181Y-52780049D01*
X99542184Y-52780051D01*
X99731588Y-52876557D01*
X99933757Y-52942246D01*
X100143713Y-52975500D01*
X100143714Y-52975500D01*
X100356286Y-52975500D01*
X100356287Y-52975500D01*
X100566243Y-52942246D01*
X100768412Y-52876557D01*
X100957816Y-52780051D01*
X100990701Y-52756159D01*
X101129786Y-52655109D01*
X101129788Y-52655106D01*
X101129792Y-52655104D01*
X101280104Y-52504792D01*
X101280106Y-52504788D01*
X101280109Y-52504786D01*
X101405048Y-52332820D01*
X101405047Y-52332820D01*
X101405051Y-52332816D01*
X101501557Y-52143412D01*
X101567246Y-51941243D01*
X101600500Y-51731287D01*
X101600500Y-51268713D01*
X101567246Y-51058757D01*
X101501557Y-50856588D01*
X101405051Y-50667184D01*
X101360377Y-50605695D01*
X101341044Y-50579085D01*
X101317565Y-50513278D01*
X101333391Y-50445224D01*
X101383497Y-50396530D01*
X101441363Y-50382200D01*
X107467957Y-50382200D01*
X107534996Y-50401885D01*
G37*
%TD.AperFunction*%
%TA.AperFunction,Conductor*%
G36*
X93503571Y-50428885D02*
G01*
X93549326Y-50481689D01*
X93559270Y-50550847D01*
X93543920Y-50595198D01*
X93537861Y-50605693D01*
X93537859Y-50605696D01*
X93508925Y-50655809D01*
X93508924Y-50655810D01*
X93505721Y-50667763D01*
X93467999Y-50808543D01*
X93467999Y-50808545D01*
X93467999Y-50976646D01*
X93468000Y-50976659D01*
X93468000Y-52072730D01*
X93467999Y-52072748D01*
X93467999Y-52238454D01*
X93467998Y-52238454D01*
X93508924Y-52391189D01*
X93508925Y-52391190D01*
X93532325Y-52431719D01*
X93532326Y-52431721D01*
X93587975Y-52528109D01*
X93587981Y-52528117D01*
X93706849Y-52646985D01*
X93706855Y-52646990D01*
X93868343Y-52808478D01*
X93901828Y-52869801D01*
X93896844Y-52939493D01*
X93854972Y-52995426D01*
X93789508Y-53019843D01*
X93748569Y-53015934D01*
X93653686Y-52990510D01*
X93599157Y-52975899D01*
X93441043Y-52975899D01*
X93433447Y-52975899D01*
X93433431Y-52975900D01*
X87069887Y-52975900D01*
X87002848Y-52956215D01*
X86957093Y-52903411D01*
X86947149Y-52834253D01*
X86976174Y-52770697D01*
X86997002Y-52751582D01*
X87129785Y-52655109D01*
X87129783Y-52655109D01*
X87129792Y-52655104D01*
X87280104Y-52504792D01*
X87280106Y-52504788D01*
X87280109Y-52504786D01*
X87405048Y-52332820D01*
X87405047Y-52332820D01*
X87405051Y-52332816D01*
X87501557Y-52143412D01*
X87501557Y-52143409D01*
X87503769Y-52139070D01*
X87505095Y-52139746D01*
X87544763Y-52090498D01*
X87583409Y-52072565D01*
X87631884Y-52059577D01*
X87631888Y-52059574D01*
X87631890Y-52059574D01*
X87768809Y-51980524D01*
X87768808Y-51980524D01*
X87768816Y-51980520D01*
X87880620Y-51868716D01*
X87959677Y-51731784D01*
X88000600Y-51579057D01*
X88000600Y-51033697D01*
X88020285Y-50966658D01*
X88036919Y-50946016D01*
X88537416Y-50445519D01*
X88598739Y-50412034D01*
X88625097Y-50409200D01*
X93436532Y-50409200D01*
X93503571Y-50428885D01*
G37*
%TD.AperFunction*%
%TA.AperFunction,Conductor*%
G36*
X164269031Y-40520185D02*
G01*
X164314786Y-40572989D01*
X164324730Y-40642147D01*
X164295705Y-40705703D01*
X164260445Y-40733858D01*
X164095279Y-40822140D01*
X164095261Y-40822151D01*
X163792964Y-41024140D01*
X163792950Y-41024150D01*
X163511893Y-41254807D01*
X163254807Y-41511893D01*
X163024150Y-41792950D01*
X163024140Y-41792964D01*
X162822151Y-42095261D01*
X162822140Y-42095279D01*
X162650756Y-42415916D01*
X162650754Y-42415921D01*
X162511614Y-42751834D01*
X162406067Y-43099776D01*
X162406064Y-43099787D01*
X162335137Y-43456369D01*
X162307628Y-43735679D01*
X162299500Y-43818206D01*
X162299500Y-44181794D01*
X162299851Y-44185354D01*
X162335137Y-44543630D01*
X162406064Y-44900212D01*
X162406067Y-44900223D01*
X162511614Y-45248165D01*
X162650754Y-45584078D01*
X162650756Y-45584083D01*
X162822140Y-45904720D01*
X162822151Y-45904738D01*
X163024140Y-46207035D01*
X163024150Y-46207049D01*
X163254807Y-46488106D01*
X163511893Y-46745192D01*
X163511898Y-46745196D01*
X163511899Y-46745197D01*
X163792956Y-46975854D01*
X164095268Y-47177853D01*
X164095277Y-47177858D01*
X164095279Y-47177859D01*
X164415916Y-47349243D01*
X164415918Y-47349243D01*
X164415924Y-47349247D01*
X164751836Y-47488386D01*
X165099767Y-47593930D01*
X165099773Y-47593931D01*
X165099776Y-47593932D01*
X165099787Y-47593935D01*
X165456369Y-47664862D01*
X165818206Y-47700500D01*
X165818209Y-47700500D01*
X166181791Y-47700500D01*
X166181794Y-47700500D01*
X166543631Y-47664862D01*
X166613045Y-47651054D01*
X166900212Y-47593935D01*
X166900223Y-47593932D01*
X166900223Y-47593931D01*
X166900233Y-47593930D01*
X167248164Y-47488386D01*
X167584076Y-47349247D01*
X167904732Y-47177853D01*
X168207044Y-46975854D01*
X168488101Y-46745197D01*
X168745197Y-46488101D01*
X168975854Y-46207044D01*
X169177853Y-45904732D01*
X169266142Y-45739555D01*
X169315104Y-45689711D01*
X169383242Y-45674250D01*
X169448921Y-45698082D01*
X169491290Y-45753639D01*
X169499500Y-45798008D01*
X169499500Y-94201991D01*
X169479815Y-94269030D01*
X169427011Y-94314785D01*
X169357853Y-94324729D01*
X169294297Y-94295704D01*
X169266142Y-94260444D01*
X169177859Y-94095279D01*
X169177858Y-94095277D01*
X169177853Y-94095268D01*
X168975854Y-93792956D01*
X168745197Y-93511899D01*
X168745196Y-93511898D01*
X168745192Y-93511893D01*
X168488106Y-93254807D01*
X168207049Y-93024150D01*
X168207048Y-93024149D01*
X168207044Y-93024146D01*
X167904732Y-92822147D01*
X167904727Y-92822144D01*
X167904720Y-92822140D01*
X167584083Y-92650756D01*
X167584078Y-92650754D01*
X167248165Y-92511614D01*
X166900223Y-92406067D01*
X166900212Y-92406064D01*
X166543630Y-92335137D01*
X166271111Y-92308296D01*
X166181794Y-92299500D01*
X165818206Y-92299500D01*
X165735679Y-92307628D01*
X165456369Y-92335137D01*
X165099787Y-92406064D01*
X165099776Y-92406067D01*
X164751834Y-92511614D01*
X164415921Y-92650754D01*
X164415916Y-92650756D01*
X164095279Y-92822140D01*
X164095261Y-92822151D01*
X163792964Y-93024140D01*
X163792950Y-93024150D01*
X163511893Y-93254807D01*
X163254807Y-93511893D01*
X163024150Y-93792950D01*
X163024140Y-93792964D01*
X162822151Y-94095261D01*
X162822140Y-94095279D01*
X162650756Y-94415916D01*
X162650754Y-94415921D01*
X162511614Y-94751834D01*
X162406067Y-95099776D01*
X162406064Y-95099787D01*
X162335137Y-95456369D01*
X162307628Y-95735679D01*
X162299500Y-95818206D01*
X162299500Y-96181794D01*
X162306267Y-96250500D01*
X162335137Y-96543630D01*
X162406064Y-96900212D01*
X162406067Y-96900223D01*
X162511614Y-97248165D01*
X162650754Y-97584078D01*
X162650756Y-97584083D01*
X162822140Y-97904720D01*
X162822151Y-97904738D01*
X163024140Y-98207035D01*
X163024150Y-98207049D01*
X163254807Y-98488106D01*
X163511893Y-98745192D01*
X163511898Y-98745196D01*
X163511899Y-98745197D01*
X163792956Y-98975854D01*
X164095268Y-99177853D01*
X164095277Y-99177858D01*
X164095279Y-99177859D01*
X164260445Y-99266142D01*
X164310289Y-99315104D01*
X164325750Y-99383242D01*
X164301918Y-99448921D01*
X164246361Y-99491290D01*
X164201992Y-99499500D01*
X75798008Y-99499500D01*
X75730969Y-99479815D01*
X75685214Y-99427011D01*
X75675270Y-99357853D01*
X75704295Y-99294297D01*
X75739555Y-99266142D01*
X75838608Y-99213197D01*
X75904732Y-99177853D01*
X76207044Y-98975854D01*
X76488101Y-98745197D01*
X76745197Y-98488101D01*
X76975854Y-98207044D01*
X77177853Y-97904732D01*
X77349247Y-97584076D01*
X77488386Y-97248164D01*
X77593930Y-96900233D01*
X77593932Y-96900223D01*
X77593935Y-96900212D01*
X77664862Y-96543630D01*
X77693733Y-96250500D01*
X77700500Y-96181794D01*
X77700500Y-95818206D01*
X77664862Y-95456369D01*
X77632332Y-95292826D01*
X77593935Y-95099787D01*
X77593932Y-95099776D01*
X77593931Y-95099773D01*
X77593930Y-95099767D01*
X77533810Y-94901577D01*
X83349500Y-94901577D01*
X83349500Y-95098422D01*
X83380290Y-95292826D01*
X83441117Y-95480029D01*
X83530476Y-95655405D01*
X83646172Y-95814646D01*
X83785354Y-95953828D01*
X83944595Y-96069524D01*
X84027455Y-96111743D01*
X84119970Y-96158882D01*
X84119972Y-96158882D01*
X84119975Y-96158884D01*
X84220317Y-96191487D01*
X84307173Y-96219709D01*
X84501578Y-96250500D01*
X84501583Y-96250500D01*
X85498422Y-96250500D01*
X85692826Y-96219709D01*
X85880025Y-96158884D01*
X86055405Y-96069524D01*
X86214646Y-95953828D01*
X86353828Y-95814646D01*
X86469524Y-95655405D01*
X86558884Y-95480025D01*
X86619709Y-95292826D01*
X86650500Y-95098422D01*
X86650500Y-94901577D01*
X97349500Y-94901577D01*
X97349500Y-95098422D01*
X97380290Y-95292826D01*
X97441117Y-95480029D01*
X97530476Y-95655405D01*
X97646172Y-95814646D01*
X97785354Y-95953828D01*
X97944595Y-96069524D01*
X98027455Y-96111743D01*
X98119970Y-96158882D01*
X98119972Y-96158882D01*
X98119975Y-96158884D01*
X98220317Y-96191487D01*
X98307173Y-96219709D01*
X98501578Y-96250500D01*
X98501583Y-96250500D01*
X99498422Y-96250500D01*
X99692826Y-96219709D01*
X99880025Y-96158884D01*
X100055405Y-96069524D01*
X100214646Y-95953828D01*
X100353828Y-95814646D01*
X100469524Y-95655405D01*
X100558884Y-95480025D01*
X100619709Y-95292826D01*
X100650500Y-95098422D01*
X100650500Y-94901577D01*
X111349500Y-94901577D01*
X111349500Y-95098422D01*
X111380290Y-95292826D01*
X111441117Y-95480029D01*
X111530476Y-95655405D01*
X111646172Y-95814646D01*
X111785354Y-95953828D01*
X111944595Y-96069524D01*
X112027455Y-96111743D01*
X112119970Y-96158882D01*
X112119972Y-96158882D01*
X112119975Y-96158884D01*
X112220317Y-96191487D01*
X112307173Y-96219709D01*
X112501578Y-96250500D01*
X112501583Y-96250500D01*
X113498422Y-96250500D01*
X113692826Y-96219709D01*
X113880025Y-96158884D01*
X114055405Y-96069524D01*
X114214646Y-95953828D01*
X114353828Y-95814646D01*
X114469524Y-95655405D01*
X114558884Y-95480025D01*
X114619709Y-95292826D01*
X114650500Y-95098422D01*
X114650500Y-94901577D01*
X125349500Y-94901577D01*
X125349500Y-95098422D01*
X125380290Y-95292826D01*
X125441117Y-95480029D01*
X125530476Y-95655405D01*
X125646172Y-95814646D01*
X125785354Y-95953828D01*
X125944595Y-96069524D01*
X126027455Y-96111743D01*
X126119970Y-96158882D01*
X126119972Y-96158882D01*
X126119975Y-96158884D01*
X126220317Y-96191487D01*
X126307173Y-96219709D01*
X126501578Y-96250500D01*
X126501583Y-96250500D01*
X127498422Y-96250500D01*
X127692826Y-96219709D01*
X127880025Y-96158884D01*
X128055405Y-96069524D01*
X128214646Y-95953828D01*
X128353828Y-95814646D01*
X128469524Y-95655405D01*
X128558884Y-95480025D01*
X128619709Y-95292826D01*
X128650500Y-95098422D01*
X128650500Y-94901577D01*
X138349500Y-94901577D01*
X138349500Y-95098422D01*
X138380290Y-95292826D01*
X138441117Y-95480029D01*
X138530476Y-95655405D01*
X138646172Y-95814646D01*
X138785354Y-95953828D01*
X138944595Y-96069524D01*
X139027455Y-96111743D01*
X139119970Y-96158882D01*
X139119972Y-96158882D01*
X139119975Y-96158884D01*
X139220317Y-96191487D01*
X139307173Y-96219709D01*
X139501578Y-96250500D01*
X139501583Y-96250500D01*
X140498422Y-96250500D01*
X140692826Y-96219709D01*
X140880025Y-96158884D01*
X141055405Y-96069524D01*
X141214646Y-95953828D01*
X141353828Y-95814646D01*
X141469524Y-95655405D01*
X141558884Y-95480025D01*
X141619709Y-95292826D01*
X141650500Y-95098422D01*
X141650500Y-94901577D01*
X147899500Y-94901577D01*
X147899500Y-95098422D01*
X147930290Y-95292826D01*
X147991117Y-95480029D01*
X148080476Y-95655405D01*
X148196172Y-95814646D01*
X148335354Y-95953828D01*
X148494595Y-96069524D01*
X148577455Y-96111743D01*
X148669970Y-96158882D01*
X148669972Y-96158882D01*
X148669975Y-96158884D01*
X148770317Y-96191487D01*
X148857173Y-96219709D01*
X149051578Y-96250500D01*
X149051583Y-96250500D01*
X150048422Y-96250500D01*
X150242826Y-96219709D01*
X150430025Y-96158884D01*
X150605405Y-96069524D01*
X150764646Y-95953828D01*
X150903828Y-95814646D01*
X151019524Y-95655405D01*
X151108884Y-95480025D01*
X151169709Y-95292826D01*
X151200500Y-95098422D01*
X151200500Y-94901577D01*
X151169709Y-94707173D01*
X151108882Y-94519970D01*
X151019523Y-94344594D01*
X150903828Y-94185354D01*
X150764646Y-94046172D01*
X150605405Y-93930476D01*
X150430029Y-93841117D01*
X150242826Y-93780290D01*
X150048422Y-93749500D01*
X150048417Y-93749500D01*
X149051583Y-93749500D01*
X149051578Y-93749500D01*
X148857173Y-93780290D01*
X148669970Y-93841117D01*
X148494594Y-93930476D01*
X148403741Y-93996485D01*
X148335354Y-94046172D01*
X148335352Y-94046174D01*
X148335351Y-94046174D01*
X148196174Y-94185351D01*
X148196174Y-94185352D01*
X148196172Y-94185354D01*
X148151848Y-94246360D01*
X148080476Y-94344594D01*
X147991117Y-94519970D01*
X147930290Y-94707173D01*
X147899500Y-94901577D01*
X141650500Y-94901577D01*
X141619709Y-94707173D01*
X141558882Y-94519970D01*
X141469523Y-94344594D01*
X141353828Y-94185354D01*
X141214646Y-94046172D01*
X141055405Y-93930476D01*
X140880029Y-93841117D01*
X140692826Y-93780290D01*
X140498422Y-93749500D01*
X140498417Y-93749500D01*
X139501583Y-93749500D01*
X139501578Y-93749500D01*
X139307173Y-93780290D01*
X139119970Y-93841117D01*
X138944594Y-93930476D01*
X138853741Y-93996485D01*
X138785354Y-94046172D01*
X138785352Y-94046174D01*
X138785351Y-94046174D01*
X138646174Y-94185351D01*
X138646174Y-94185352D01*
X138646172Y-94185354D01*
X138601848Y-94246360D01*
X138530476Y-94344594D01*
X138441117Y-94519970D01*
X138380290Y-94707173D01*
X138349500Y-94901577D01*
X128650500Y-94901577D01*
X128619709Y-94707173D01*
X128558882Y-94519970D01*
X128469523Y-94344594D01*
X128353828Y-94185354D01*
X128214646Y-94046172D01*
X128055405Y-93930476D01*
X127880029Y-93841117D01*
X127692826Y-93780290D01*
X127498422Y-93749500D01*
X127498417Y-93749500D01*
X126501583Y-93749500D01*
X126501578Y-93749500D01*
X126307173Y-93780290D01*
X126119970Y-93841117D01*
X125944594Y-93930476D01*
X125853741Y-93996485D01*
X125785354Y-94046172D01*
X125785352Y-94046174D01*
X125785351Y-94046174D01*
X125646174Y-94185351D01*
X125646174Y-94185352D01*
X125646172Y-94185354D01*
X125601848Y-94246360D01*
X125530476Y-94344594D01*
X125441117Y-94519970D01*
X125380290Y-94707173D01*
X125349500Y-94901577D01*
X114650500Y-94901577D01*
X114619709Y-94707173D01*
X114558882Y-94519970D01*
X114469523Y-94344594D01*
X114353828Y-94185354D01*
X114214646Y-94046172D01*
X114055405Y-93930476D01*
X113880029Y-93841117D01*
X113692826Y-93780290D01*
X113498422Y-93749500D01*
X113498417Y-93749500D01*
X112501583Y-93749500D01*
X112501578Y-93749500D01*
X112307173Y-93780290D01*
X112119970Y-93841117D01*
X111944594Y-93930476D01*
X111853741Y-93996485D01*
X111785354Y-94046172D01*
X111785352Y-94046174D01*
X111785351Y-94046174D01*
X111646174Y-94185351D01*
X111646174Y-94185352D01*
X111646172Y-94185354D01*
X111601848Y-94246360D01*
X111530476Y-94344594D01*
X111441117Y-94519970D01*
X111380290Y-94707173D01*
X111349500Y-94901577D01*
X100650500Y-94901577D01*
X100619709Y-94707173D01*
X100558882Y-94519970D01*
X100469523Y-94344594D01*
X100353828Y-94185354D01*
X100214646Y-94046172D01*
X100055405Y-93930476D01*
X99880029Y-93841117D01*
X99692826Y-93780290D01*
X99498422Y-93749500D01*
X99498417Y-93749500D01*
X98501583Y-93749500D01*
X98501578Y-93749500D01*
X98307173Y-93780290D01*
X98119970Y-93841117D01*
X97944594Y-93930476D01*
X97853741Y-93996485D01*
X97785354Y-94046172D01*
X97785352Y-94046174D01*
X97785351Y-94046174D01*
X97646174Y-94185351D01*
X97646174Y-94185352D01*
X97646172Y-94185354D01*
X97601848Y-94246360D01*
X97530476Y-94344594D01*
X97441117Y-94519970D01*
X97380290Y-94707173D01*
X97349500Y-94901577D01*
X86650500Y-94901577D01*
X86619709Y-94707173D01*
X86558882Y-94519970D01*
X86469523Y-94344594D01*
X86353828Y-94185354D01*
X86214646Y-94046172D01*
X86055405Y-93930476D01*
X85880029Y-93841117D01*
X85692826Y-93780290D01*
X85498422Y-93749500D01*
X85498417Y-93749500D01*
X84501583Y-93749500D01*
X84501578Y-93749500D01*
X84307173Y-93780290D01*
X84119970Y-93841117D01*
X83944594Y-93930476D01*
X83853741Y-93996485D01*
X83785354Y-94046172D01*
X83785352Y-94046174D01*
X83785351Y-94046174D01*
X83646174Y-94185351D01*
X83646174Y-94185352D01*
X83646172Y-94185354D01*
X83601848Y-94246360D01*
X83530476Y-94344594D01*
X83441117Y-94519970D01*
X83380290Y-94707173D01*
X83349500Y-94901577D01*
X77533810Y-94901577D01*
X77488386Y-94751836D01*
X77349247Y-94415924D01*
X77311120Y-94344594D01*
X77177859Y-94095279D01*
X77177858Y-94095277D01*
X77177853Y-94095268D01*
X76975854Y-93792956D01*
X76745197Y-93511899D01*
X76745196Y-93511898D01*
X76745192Y-93511893D01*
X76488106Y-93254807D01*
X76207049Y-93024150D01*
X76207048Y-93024149D01*
X76207044Y-93024146D01*
X75904732Y-92822147D01*
X75904727Y-92822144D01*
X75904720Y-92822140D01*
X75584083Y-92650756D01*
X75584078Y-92650754D01*
X75248165Y-92511614D01*
X74900223Y-92406067D01*
X74900212Y-92406064D01*
X74543630Y-92335137D01*
X74271111Y-92308296D01*
X74181794Y-92299500D01*
X73818206Y-92299500D01*
X73735679Y-92307628D01*
X73456369Y-92335137D01*
X73099787Y-92406064D01*
X73099776Y-92406067D01*
X72751834Y-92511614D01*
X72415921Y-92650754D01*
X72415916Y-92650756D01*
X72095279Y-92822140D01*
X72095261Y-92822151D01*
X71792964Y-93024140D01*
X71792950Y-93024150D01*
X71511893Y-93254807D01*
X71254807Y-93511893D01*
X71024150Y-93792950D01*
X71024140Y-93792964D01*
X70822151Y-94095261D01*
X70822140Y-94095279D01*
X70733858Y-94260444D01*
X70684896Y-94310289D01*
X70616758Y-94325749D01*
X70551078Y-94301917D01*
X70508710Y-94246360D01*
X70500500Y-94201991D01*
X70500500Y-76751577D01*
X72749500Y-76751577D01*
X72749500Y-77748422D01*
X72780290Y-77942826D01*
X72841117Y-78130029D01*
X72909399Y-78264039D01*
X72930476Y-78305405D01*
X73046172Y-78464646D01*
X73185354Y-78603828D01*
X73344595Y-78719524D01*
X73427455Y-78761743D01*
X73519970Y-78808882D01*
X73519972Y-78808882D01*
X73519975Y-78808884D01*
X73582369Y-78829157D01*
X73707173Y-78869709D01*
X73901578Y-78900500D01*
X73901583Y-78900500D01*
X74098422Y-78900500D01*
X74292826Y-78869709D01*
X74480025Y-78808884D01*
X74655405Y-78719524D01*
X74814646Y-78603828D01*
X74953828Y-78464646D01*
X75069524Y-78305405D01*
X75158884Y-78130025D01*
X75219709Y-77942826D01*
X75230197Y-77876609D01*
X75250500Y-77748422D01*
X75250500Y-76751577D01*
X75219709Y-76557173D01*
X75188671Y-76461650D01*
X75158884Y-76369975D01*
X75158882Y-76369972D01*
X75158882Y-76369970D01*
X75069523Y-76194594D01*
X74953828Y-76035354D01*
X74814646Y-75896172D01*
X74655405Y-75780476D01*
X74480029Y-75691117D01*
X74292826Y-75630290D01*
X74098422Y-75599500D01*
X74098417Y-75599500D01*
X73901583Y-75599500D01*
X73901578Y-75599500D01*
X73707173Y-75630290D01*
X73519970Y-75691117D01*
X73344594Y-75780476D01*
X73295366Y-75816243D01*
X73185354Y-75896172D01*
X73185352Y-75896174D01*
X73185351Y-75896174D01*
X73046174Y-76035351D01*
X73046174Y-76035352D01*
X73046172Y-76035354D01*
X73007880Y-76088058D01*
X72930476Y-76194594D01*
X72841117Y-76369970D01*
X72780290Y-76557173D01*
X72749500Y-76751577D01*
X70500500Y-76751577D01*
X70500500Y-75349983D01*
X79024500Y-75349983D01*
X79024500Y-76650001D01*
X79024501Y-76650018D01*
X79035000Y-76752796D01*
X79035001Y-76752799D01*
X79090185Y-76919331D01*
X79090187Y-76919336D01*
X79103215Y-76940458D01*
X79182288Y-77068656D01*
X79306344Y-77192712D01*
X79401747Y-77251557D01*
X79461120Y-77288178D01*
X79507845Y-77340126D01*
X79519068Y-77409088D01*
X79491224Y-77473171D01*
X79483706Y-77481398D01*
X79344889Y-77620215D01*
X79219951Y-77792179D01*
X79123444Y-77981585D01*
X79057753Y-78183760D01*
X79030602Y-78355186D01*
X79024500Y-78393713D01*
X79024500Y-78606287D01*
X79057754Y-78816243D01*
X79117423Y-78999885D01*
X79123444Y-79018414D01*
X79219951Y-79207820D01*
X79344890Y-79379786D01*
X79495213Y-79530109D01*
X79667179Y-79655048D01*
X79667181Y-79655049D01*
X79667184Y-79655051D01*
X79856588Y-79751557D01*
X80058757Y-79817246D01*
X80268713Y-79850500D01*
X80268714Y-79850500D01*
X80731286Y-79850500D01*
X80731287Y-79850500D01*
X80941243Y-79817246D01*
X81143412Y-79751557D01*
X81332816Y-79655051D01*
X81354789Y-79639086D01*
X81504786Y-79530109D01*
X81504788Y-79530106D01*
X81504792Y-79530104D01*
X81655104Y-79379792D01*
X81655106Y-79379788D01*
X81655109Y-79379786D01*
X81780048Y-79207820D01*
X81780047Y-79207820D01*
X81780051Y-79207816D01*
X81876557Y-79018412D01*
X81942246Y-78816243D01*
X81975500Y-78606287D01*
X81975500Y-78393713D01*
X81942246Y-78183757D01*
X81876557Y-77981588D01*
X81780051Y-77792184D01*
X81780049Y-77792181D01*
X81780048Y-77792179D01*
X81655109Y-77620213D01*
X81516294Y-77481398D01*
X81482809Y-77420075D01*
X81487793Y-77350383D01*
X81529665Y-77294450D01*
X81538879Y-77288178D01*
X81544331Y-77284814D01*
X81544334Y-77284814D01*
X81693656Y-77192712D01*
X81817712Y-77068656D01*
X81909814Y-76919334D01*
X81964999Y-76752797D01*
X81969177Y-76711896D01*
X81995573Y-76647207D01*
X82052753Y-76607055D01*
X82092535Y-76600500D01*
X85763231Y-76600500D01*
X85763247Y-76600501D01*
X85770843Y-76600501D01*
X85928954Y-76600501D01*
X85928957Y-76600501D01*
X86081685Y-76559577D01*
X86151301Y-76519384D01*
X86218616Y-76480520D01*
X86330420Y-76368716D01*
X86330420Y-76368714D01*
X86340624Y-76358511D01*
X86340628Y-76358506D01*
X89562462Y-73136671D01*
X89623783Y-73103188D01*
X89693475Y-73108172D01*
X89749406Y-73150041D01*
X89792454Y-73207546D01*
X89838643Y-73242123D01*
X89907664Y-73293793D01*
X89907671Y-73293797D01*
X90042517Y-73344091D01*
X90042516Y-73344091D01*
X90049444Y-73344835D01*
X90102127Y-73350500D01*
X91897872Y-73350499D01*
X91957483Y-73344091D01*
X92092331Y-73293796D01*
X92207546Y-73207546D01*
X92293796Y-73092331D01*
X92342810Y-72960916D01*
X92384681Y-72904984D01*
X92450145Y-72880566D01*
X92518418Y-72895417D01*
X92546673Y-72916569D01*
X92660213Y-73030109D01*
X92832179Y-73155048D01*
X92832181Y-73155049D01*
X92832184Y-73155051D01*
X93021588Y-73251557D01*
X93223757Y-73317246D01*
X93433713Y-73350500D01*
X93433714Y-73350500D01*
X93646286Y-73350500D01*
X93646287Y-73350500D01*
X93856243Y-73317246D01*
X94058412Y-73251557D01*
X94247816Y-73155051D01*
X94312340Y-73108172D01*
X94419786Y-73030109D01*
X94419788Y-73030106D01*
X94419792Y-73030104D01*
X94570104Y-72879792D01*
X94570106Y-72879788D01*
X94570109Y-72879786D01*
X94695048Y-72707820D01*
X94695047Y-72707820D01*
X94695051Y-72707816D01*
X94791557Y-72518412D01*
X94857246Y-72316243D01*
X94890500Y-72106287D01*
X94890500Y-71893713D01*
X94857246Y-71683757D01*
X94791557Y-71481588D01*
X94695051Y-71292184D01*
X94695049Y-71292181D01*
X94695048Y-71292179D01*
X94570109Y-71120213D01*
X94419786Y-70969890D01*
X94247820Y-70844951D01*
X94058414Y-70748444D01*
X94058413Y-70748443D01*
X94058412Y-70748443D01*
X93856243Y-70682754D01*
X93856241Y-70682753D01*
X93856240Y-70682753D01*
X93694957Y-70657208D01*
X93646287Y-70649500D01*
X93433713Y-70649500D01*
X93385042Y-70657208D01*
X93223760Y-70682753D01*
X93021585Y-70748444D01*
X92832179Y-70844951D01*
X92660215Y-70969889D01*
X92546673Y-71083431D01*
X92485350Y-71116915D01*
X92415658Y-71111931D01*
X92359725Y-71070059D01*
X92342810Y-71039082D01*
X92293797Y-70907671D01*
X92293793Y-70907664D01*
X92207547Y-70792455D01*
X92207544Y-70792452D01*
X92092335Y-70706206D01*
X92092328Y-70706202D01*
X91957482Y-70655908D01*
X91957483Y-70655908D01*
X91897883Y-70649501D01*
X91897881Y-70649500D01*
X91897873Y-70649500D01*
X91897864Y-70649500D01*
X90102129Y-70649500D01*
X90102123Y-70649501D01*
X90042516Y-70655908D01*
X89907671Y-70706202D01*
X89907664Y-70706206D01*
X89792455Y-70792452D01*
X89792452Y-70792455D01*
X89706206Y-70907664D01*
X89706202Y-70907671D01*
X89655908Y-71042517D01*
X89649501Y-71102116D01*
X89649500Y-71102135D01*
X89649500Y-71350711D01*
X89629815Y-71417750D01*
X89587500Y-71458098D01*
X89481187Y-71519477D01*
X89481182Y-71519481D01*
X89382555Y-71618109D01*
X89369380Y-71631284D01*
X89369378Y-71631286D01*
X87490241Y-73510424D01*
X85637484Y-75363181D01*
X85576161Y-75396666D01*
X85549803Y-75399500D01*
X82092535Y-75399500D01*
X82025496Y-75379815D01*
X81979741Y-75327011D01*
X81969177Y-75288102D01*
X81968663Y-75283071D01*
X81964999Y-75247203D01*
X81909814Y-75080666D01*
X81817712Y-74931344D01*
X81693656Y-74807288D01*
X81580180Y-74737296D01*
X81544336Y-74715187D01*
X81544331Y-74715185D01*
X81509798Y-74703742D01*
X81377797Y-74660001D01*
X81377795Y-74660000D01*
X81275010Y-74649500D01*
X79724998Y-74649500D01*
X79724981Y-74649501D01*
X79622203Y-74660000D01*
X79622200Y-74660001D01*
X79455668Y-74715185D01*
X79455663Y-74715187D01*
X79306342Y-74807289D01*
X79182289Y-74931342D01*
X79090187Y-75080663D01*
X79090185Y-75080668D01*
X79074649Y-75127553D01*
X79035001Y-75247203D01*
X79035001Y-75247204D01*
X79035000Y-75247204D01*
X79024500Y-75349983D01*
X70500500Y-75349983D01*
X70500500Y-62251577D01*
X72749500Y-62251577D01*
X72749500Y-63248422D01*
X72780290Y-63442826D01*
X72841117Y-63630029D01*
X72914519Y-63774087D01*
X72930476Y-63805405D01*
X73046172Y-63964646D01*
X73185354Y-64103828D01*
X73344595Y-64219524D01*
X73395637Y-64245531D01*
X73519970Y-64308882D01*
X73519972Y-64308882D01*
X73519975Y-64308884D01*
X73620317Y-64341487D01*
X73707173Y-64369709D01*
X73901578Y-64400500D01*
X73901583Y-64400500D01*
X74098422Y-64400500D01*
X74292826Y-64369709D01*
X74302096Y-64366697D01*
X74480025Y-64308884D01*
X74655405Y-64219524D01*
X74814646Y-64103828D01*
X74953828Y-63964646D01*
X75069524Y-63805405D01*
X75158884Y-63630025D01*
X75219709Y-63442826D01*
X75233805Y-63353828D01*
X75250500Y-63248422D01*
X75250500Y-62251577D01*
X75219709Y-62057173D01*
X75171889Y-61910000D01*
X75158884Y-61869975D01*
X75158882Y-61869972D01*
X75158882Y-61869970D01*
X75069523Y-61694594D01*
X74953828Y-61535354D01*
X74814646Y-61396172D01*
X74655405Y-61280476D01*
X74645019Y-61275184D01*
X74480029Y-61191117D01*
X74292826Y-61130290D01*
X74098422Y-61099500D01*
X74098417Y-61099500D01*
X73901583Y-61099500D01*
X73901578Y-61099500D01*
X73707173Y-61130290D01*
X73519970Y-61191117D01*
X73344594Y-61280476D01*
X73253741Y-61346485D01*
X73185354Y-61396172D01*
X73185352Y-61396174D01*
X73185351Y-61396174D01*
X73046174Y-61535351D01*
X73046174Y-61535352D01*
X73046172Y-61535354D01*
X72996485Y-61603741D01*
X72930476Y-61694594D01*
X72841117Y-61869970D01*
X72780290Y-62057173D01*
X72749500Y-62251577D01*
X70500500Y-62251577D01*
X70500500Y-60849983D01*
X79024500Y-60849983D01*
X79024500Y-62150001D01*
X79024501Y-62150018D01*
X79035000Y-62252796D01*
X79035001Y-62252799D01*
X79090185Y-62419331D01*
X79090187Y-62419336D01*
X79112852Y-62456081D01*
X79172221Y-62552335D01*
X79182289Y-62568657D01*
X79306344Y-62692712D01*
X79461120Y-62788178D01*
X79507845Y-62840126D01*
X79519068Y-62909088D01*
X79491224Y-62973171D01*
X79483706Y-62981398D01*
X79344889Y-63120215D01*
X79219951Y-63292179D01*
X79123444Y-63481585D01*
X79123443Y-63481587D01*
X79123443Y-63481588D01*
X79103419Y-63543216D01*
X79057753Y-63683760D01*
X79024500Y-63893713D01*
X79024500Y-64106286D01*
X79056036Y-64305401D01*
X79057754Y-64316243D01*
X79121425Y-64512202D01*
X79123444Y-64518414D01*
X79219951Y-64707820D01*
X79344890Y-64879786D01*
X79495213Y-65030109D01*
X79667179Y-65155048D01*
X79667181Y-65155049D01*
X79667184Y-65155051D01*
X79856588Y-65251557D01*
X80058757Y-65317246D01*
X80268713Y-65350500D01*
X80268714Y-65350500D01*
X80731286Y-65350500D01*
X80731287Y-65350500D01*
X80941243Y-65317246D01*
X81143412Y-65251557D01*
X81332816Y-65155051D01*
X81354789Y-65139086D01*
X81504786Y-65030109D01*
X81504788Y-65030106D01*
X81504792Y-65030104D01*
X81655104Y-64879792D01*
X81655106Y-64879788D01*
X81655109Y-64879786D01*
X81780048Y-64707820D01*
X81780047Y-64707820D01*
X81780051Y-64707816D01*
X81876557Y-64518412D01*
X81942246Y-64316243D01*
X81975500Y-64106287D01*
X81975500Y-63893713D01*
X81942246Y-63683757D01*
X81876557Y-63481588D01*
X81780051Y-63292184D01*
X81780049Y-63292181D01*
X81780048Y-63292179D01*
X81655109Y-63120213D01*
X81516294Y-62981398D01*
X81482809Y-62920075D01*
X81487793Y-62850383D01*
X81529665Y-62794450D01*
X81538879Y-62788178D01*
X81544331Y-62784814D01*
X81544334Y-62784814D01*
X81693656Y-62692712D01*
X81817712Y-62568656D01*
X81909814Y-62419334D01*
X81964999Y-62252797D01*
X81969177Y-62211896D01*
X81995573Y-62147207D01*
X82052753Y-62107055D01*
X82092535Y-62100500D01*
X86723231Y-62100500D01*
X86723247Y-62100501D01*
X86730843Y-62100501D01*
X86888954Y-62100501D01*
X86888957Y-62100501D01*
X87041685Y-62059577D01*
X87091804Y-62030639D01*
X87178616Y-61980520D01*
X87290420Y-61868716D01*
X87290420Y-61868714D01*
X87300628Y-61858507D01*
X87300630Y-61858504D01*
X89022462Y-60136671D01*
X89083783Y-60103188D01*
X89153475Y-60108172D01*
X89209406Y-60150041D01*
X89252454Y-60207546D01*
X89298643Y-60242123D01*
X89367664Y-60293793D01*
X89367671Y-60293797D01*
X89502517Y-60344091D01*
X89502516Y-60344091D01*
X89509444Y-60344835D01*
X89562127Y-60350500D01*
X91357872Y-60350499D01*
X91417483Y-60344091D01*
X91552331Y-60293796D01*
X91667546Y-60207546D01*
X91753796Y-60092331D01*
X91802810Y-59960916D01*
X91844681Y-59904984D01*
X91910145Y-59880566D01*
X91978418Y-59895417D01*
X92006673Y-59916569D01*
X92120213Y-60030109D01*
X92292179Y-60155048D01*
X92292181Y-60155049D01*
X92292184Y-60155051D01*
X92481588Y-60251557D01*
X92683757Y-60317246D01*
X92893713Y-60350500D01*
X92893714Y-60350500D01*
X93106286Y-60350500D01*
X93106287Y-60350500D01*
X93316243Y-60317246D01*
X93518412Y-60251557D01*
X93707816Y-60155051D01*
X93794138Y-60092335D01*
X93879786Y-60030109D01*
X93879788Y-60030106D01*
X93879792Y-60030104D01*
X94030104Y-59879792D01*
X94030106Y-59879788D01*
X94030109Y-59879786D01*
X94155048Y-59707820D01*
X94155047Y-59707820D01*
X94155051Y-59707816D01*
X94251557Y-59518412D01*
X94317246Y-59316243D01*
X94350500Y-59106287D01*
X94350500Y-58893713D01*
X94317246Y-58683757D01*
X94251557Y-58481588D01*
X94155051Y-58292184D01*
X94155049Y-58292181D01*
X94155048Y-58292179D01*
X94030109Y-58120213D01*
X93879786Y-57969890D01*
X93707820Y-57844951D01*
X93518414Y-57748444D01*
X93518413Y-57748443D01*
X93518412Y-57748443D01*
X93316243Y-57682754D01*
X93316241Y-57682753D01*
X93316240Y-57682753D01*
X93154957Y-57657208D01*
X93106287Y-57649500D01*
X92893713Y-57649500D01*
X92845042Y-57657208D01*
X92683760Y-57682753D01*
X92481585Y-57748444D01*
X92292179Y-57844951D01*
X92120215Y-57969889D01*
X92006673Y-58083431D01*
X91945350Y-58116915D01*
X91875658Y-58111931D01*
X91819725Y-58070059D01*
X91802810Y-58039082D01*
X91753797Y-57907671D01*
X91753793Y-57907664D01*
X91667547Y-57792455D01*
X91667544Y-57792452D01*
X91552335Y-57706206D01*
X91552328Y-57706202D01*
X91417482Y-57655908D01*
X91417483Y-57655908D01*
X91357883Y-57649501D01*
X91357881Y-57649500D01*
X91357873Y-57649500D01*
X91357864Y-57649500D01*
X89562129Y-57649500D01*
X89562123Y-57649501D01*
X89502516Y-57655908D01*
X89367671Y-57706202D01*
X89367664Y-57706206D01*
X89252455Y-57792452D01*
X89252452Y-57792455D01*
X89166206Y-57907664D01*
X89166202Y-57907671D01*
X89115908Y-58042517D01*
X89109501Y-58102116D01*
X89109500Y-58102135D01*
X89109500Y-58350711D01*
X89106118Y-58362226D01*
X89107260Y-58374174D01*
X89096456Y-58395131D01*
X89089815Y-58417750D01*
X89079946Y-58427160D01*
X89075246Y-58436278D01*
X89047503Y-58458096D01*
X89027998Y-58469358D01*
X89027995Y-58469360D01*
X88984589Y-58494420D01*
X88941185Y-58519479D01*
X88941182Y-58519481D01*
X88829380Y-58631284D01*
X88829378Y-58631286D01*
X87710685Y-59749980D01*
X86597484Y-60863181D01*
X86536161Y-60896666D01*
X86509803Y-60899500D01*
X82092535Y-60899500D01*
X82025496Y-60879815D01*
X81979741Y-60827011D01*
X81969177Y-60788102D01*
X81968663Y-60783071D01*
X81964999Y-60747203D01*
X81909814Y-60580666D01*
X81817712Y-60431344D01*
X81693656Y-60307288D01*
X81544334Y-60215186D01*
X81377797Y-60160001D01*
X81377795Y-60160000D01*
X81275010Y-60149500D01*
X79724998Y-60149500D01*
X79724981Y-60149501D01*
X79622203Y-60160000D01*
X79622200Y-60160001D01*
X79455668Y-60215185D01*
X79455663Y-60215187D01*
X79306342Y-60307289D01*
X79182289Y-60431342D01*
X79090187Y-60580663D01*
X79090186Y-60580666D01*
X79035001Y-60747203D01*
X79035001Y-60747204D01*
X79035000Y-60747204D01*
X79024500Y-60849983D01*
X70500500Y-60849983D01*
X70500500Y-51268713D01*
X79899500Y-51268713D01*
X79899500Y-51731286D01*
X79928944Y-51917191D01*
X79932754Y-51941243D01*
X79997032Y-52139070D01*
X79998444Y-52143414D01*
X80094951Y-52332820D01*
X80219890Y-52504786D01*
X80370213Y-52655109D01*
X80542179Y-52780048D01*
X80542181Y-52780049D01*
X80542184Y-52780051D01*
X80731588Y-52876557D01*
X80933757Y-52942246D01*
X81143713Y-52975500D01*
X81143714Y-52975500D01*
X81356286Y-52975500D01*
X81356287Y-52975500D01*
X81566243Y-52942246D01*
X81768412Y-52876557D01*
X81957816Y-52780051D01*
X82116500Y-52664760D01*
X82182304Y-52641282D01*
X82250358Y-52657107D01*
X82277064Y-52677399D01*
X84776939Y-55177274D01*
X84776949Y-55177285D01*
X84781279Y-55181615D01*
X84781280Y-55181616D01*
X84893084Y-55293420D01*
X84936797Y-55318657D01*
X84979895Y-55343539D01*
X84979897Y-55343541D01*
X85017951Y-55365511D01*
X85030015Y-55372477D01*
X85182743Y-55413401D01*
X85182746Y-55413401D01*
X85348453Y-55413401D01*
X85348469Y-55413400D01*
X93890703Y-55413400D01*
X93957742Y-55433085D01*
X93978384Y-55449719D01*
X102472183Y-63943519D01*
X102505668Y-64004842D01*
X102500684Y-64074534D01*
X102458812Y-64130467D01*
X102393348Y-64154884D01*
X102384502Y-64155200D01*
X97694470Y-64155200D01*
X97694454Y-64155199D01*
X97686858Y-64155199D01*
X97528743Y-64155199D01*
X97452379Y-64175661D01*
X97376014Y-64196123D01*
X97376009Y-64196126D01*
X97239090Y-64275175D01*
X97239082Y-64275181D01*
X95922639Y-65591625D01*
X95861316Y-65625110D01*
X95859150Y-65625561D01*
X95703808Y-65656461D01*
X95703798Y-65656464D01*
X95558127Y-65716802D01*
X95558114Y-65716809D01*
X95427011Y-65804410D01*
X95427007Y-65804413D01*
X95315513Y-65915907D01*
X95315510Y-65915911D01*
X95227909Y-66047014D01*
X95227902Y-66047027D01*
X95167564Y-66192698D01*
X95167561Y-66192710D01*
X95136800Y-66347353D01*
X95136800Y-66505046D01*
X95167561Y-66659689D01*
X95167564Y-66659701D01*
X95227902Y-66805372D01*
X95227909Y-66805385D01*
X95315510Y-66936488D01*
X95315513Y-66936492D01*
X95427007Y-67047986D01*
X95427011Y-67047989D01*
X95558114Y-67135590D01*
X95558127Y-67135597D01*
X95703798Y-67195935D01*
X95703803Y-67195937D01*
X95858453Y-67226699D01*
X95858456Y-67226700D01*
X95858458Y-67226700D01*
X96016144Y-67226700D01*
X96016145Y-67226699D01*
X96170797Y-67195937D01*
X96316479Y-67135594D01*
X96447589Y-67047989D01*
X96559089Y-66936489D01*
X96646694Y-66805379D01*
X96707037Y-66659697D01*
X96736093Y-66513623D01*
X96737938Y-66504350D01*
X96770323Y-66442439D01*
X96771820Y-66440914D01*
X97427476Y-65785257D01*
X97445963Y-65775163D01*
X97461638Y-65761083D01*
X97476015Y-65758753D01*
X97488797Y-65751774D01*
X97509811Y-65753276D01*
X97530608Y-65749907D01*
X97543960Y-65755719D01*
X97558488Y-65756758D01*
X97575353Y-65769383D01*
X97594672Y-65777792D01*
X97611267Y-65796267D01*
X97614422Y-65798629D01*
X97618257Y-65804049D01*
X97660102Y-65866674D01*
X97680980Y-65933351D01*
X97681000Y-65935565D01*
X97681000Y-69148830D01*
X97680999Y-69148848D01*
X97680999Y-69314554D01*
X97680998Y-69314554D01*
X97718861Y-69455857D01*
X97721923Y-69467285D01*
X97742386Y-69502727D01*
X97771188Y-69552614D01*
X97800979Y-69604215D01*
X97919849Y-69723085D01*
X97919855Y-69723090D01*
X98734525Y-70537760D01*
X98768010Y-70599083D01*
X98768461Y-70601249D01*
X98799361Y-70756591D01*
X98799364Y-70756601D01*
X98859702Y-70902272D01*
X98859709Y-70902285D01*
X98935219Y-71015293D01*
X98956097Y-71081971D01*
X98937612Y-71149351D01*
X98919798Y-71171865D01*
X95624563Y-74467101D01*
X95563240Y-74500586D01*
X95493548Y-74495602D01*
X95437615Y-74453730D01*
X95415264Y-74403606D01*
X95412838Y-74391407D01*
X95412835Y-74391398D01*
X95352497Y-74245727D01*
X95352490Y-74245714D01*
X95264889Y-74114611D01*
X95264886Y-74114607D01*
X95153392Y-74003113D01*
X95153388Y-74003110D01*
X95022285Y-73915509D01*
X95022272Y-73915502D01*
X94876601Y-73855164D01*
X94876589Y-73855161D01*
X94721945Y-73824400D01*
X94721942Y-73824400D01*
X94564258Y-73824400D01*
X94564255Y-73824400D01*
X94409610Y-73855161D01*
X94409598Y-73855164D01*
X94263927Y-73915502D01*
X94263914Y-73915509D01*
X94132811Y-74003110D01*
X94132807Y-74003113D01*
X94021313Y-74114607D01*
X94021310Y-74114611D01*
X93933709Y-74245714D01*
X93933702Y-74245727D01*
X93873364Y-74391398D01*
X93873361Y-74391410D01*
X93842600Y-74546053D01*
X93842600Y-74703746D01*
X93873361Y-74858394D01*
X93891156Y-74901354D01*
X93898624Y-74970824D01*
X93867348Y-75033303D01*
X93864275Y-75036487D01*
X93564495Y-75336268D01*
X93503172Y-75369753D01*
X93433481Y-75364769D01*
X93377547Y-75322898D01*
X93355197Y-75272778D01*
X93350383Y-75248579D01*
X93348737Y-75240303D01*
X93317426Y-75164711D01*
X93288397Y-75094627D01*
X93288390Y-75094614D01*
X93200789Y-74963511D01*
X93200786Y-74963507D01*
X93089292Y-74852013D01*
X93089288Y-74852010D01*
X92958185Y-74764409D01*
X92958172Y-74764402D01*
X92812501Y-74704064D01*
X92812489Y-74704061D01*
X92657845Y-74673300D01*
X92657842Y-74673300D01*
X92500158Y-74673300D01*
X92500155Y-74673300D01*
X92345510Y-74704061D01*
X92345498Y-74704064D01*
X92199827Y-74764402D01*
X92199814Y-74764409D01*
X92068711Y-74852010D01*
X92068707Y-74852013D01*
X91957213Y-74963507D01*
X91957210Y-74963511D01*
X91869609Y-75094614D01*
X91869602Y-75094627D01*
X91809264Y-75240298D01*
X91809261Y-75240308D01*
X91778362Y-75395648D01*
X91745977Y-75457559D01*
X91744426Y-75459137D01*
X81819886Y-85383678D01*
X81708081Y-85495482D01*
X81708079Y-85495485D01*
X81657961Y-85582294D01*
X81657959Y-85582296D01*
X81629025Y-85632409D01*
X81629024Y-85632410D01*
X81629023Y-85632415D01*
X81588099Y-85785143D01*
X81588099Y-85785145D01*
X81588099Y-85953246D01*
X81588100Y-85953259D01*
X81588100Y-86120634D01*
X81568415Y-86187673D01*
X81567202Y-86189525D01*
X81479209Y-86321214D01*
X81479202Y-86321227D01*
X81418864Y-86466898D01*
X81418861Y-86466910D01*
X81388100Y-86621553D01*
X81388100Y-86779246D01*
X81407407Y-86876309D01*
X81401180Y-86945901D01*
X81358317Y-87001078D01*
X81292427Y-87024322D01*
X81285790Y-87024500D01*
X80599998Y-87024500D01*
X80599980Y-87024501D01*
X80497203Y-87035000D01*
X80497200Y-87035001D01*
X80330668Y-87090185D01*
X80330663Y-87090187D01*
X80181342Y-87182289D01*
X80057289Y-87306342D01*
X79965187Y-87455663D01*
X79965185Y-87455668D01*
X79960325Y-87470334D01*
X79910001Y-87622203D01*
X79910001Y-87622204D01*
X79910000Y-87622204D01*
X79899500Y-87724983D01*
X79899500Y-89275001D01*
X79899501Y-89275018D01*
X79910000Y-89377796D01*
X79910001Y-89377799D01*
X79953284Y-89508416D01*
X79965186Y-89544334D01*
X80057288Y-89693656D01*
X80181344Y-89817712D01*
X80330666Y-89909814D01*
X80497203Y-89964999D01*
X80599991Y-89975500D01*
X81900008Y-89975499D01*
X82002797Y-89964999D01*
X82169334Y-89909814D01*
X82318656Y-89817712D01*
X82318658Y-89817709D01*
X82323418Y-89814774D01*
X82390810Y-89796333D01*
X82457474Y-89817255D01*
X82476195Y-89832630D01*
X83797884Y-91154320D01*
X83797886Y-91154321D01*
X83797890Y-91154324D01*
X83934809Y-91233373D01*
X83934816Y-91233377D01*
X84087543Y-91274301D01*
X84087545Y-91274301D01*
X84253254Y-91274301D01*
X84253270Y-91274300D01*
X148180131Y-91274300D01*
X148180147Y-91274301D01*
X148187743Y-91274301D01*
X148345854Y-91274301D01*
X148345857Y-91274301D01*
X148498585Y-91233377D01*
X148548704Y-91204439D01*
X148635516Y-91154320D01*
X148747320Y-91042516D01*
X148747320Y-91042514D01*
X148757528Y-91032307D01*
X148757530Y-91032304D01*
X149973894Y-89815939D01*
X150035215Y-89782456D01*
X150104907Y-89787440D01*
X150117858Y-89793133D01*
X150281588Y-89876557D01*
X150483757Y-89942246D01*
X150693713Y-89975500D01*
X150693714Y-89975500D01*
X150906286Y-89975500D01*
X150906287Y-89975500D01*
X151116243Y-89942246D01*
X151318412Y-89876557D01*
X151507816Y-89780051D01*
X151529789Y-89764086D01*
X151679786Y-89655109D01*
X151679788Y-89655106D01*
X151679792Y-89655104D01*
X151830104Y-89504792D01*
X151830106Y-89504788D01*
X151830109Y-89504786D01*
X151955048Y-89332820D01*
X151955047Y-89332820D01*
X151955051Y-89332816D01*
X152051557Y-89143412D01*
X152117246Y-88941243D01*
X152150500Y-88731287D01*
X152150500Y-88268713D01*
X152117246Y-88058757D01*
X152051557Y-87856588D01*
X151955051Y-87667184D01*
X151955049Y-87667181D01*
X151955048Y-87667179D01*
X151830109Y-87495213D01*
X151679786Y-87344890D01*
X151507820Y-87219951D01*
X151318414Y-87123444D01*
X151318413Y-87123443D01*
X151318412Y-87123443D01*
X151116243Y-87057754D01*
X151116241Y-87057753D01*
X151116240Y-87057753D01*
X150946303Y-87030838D01*
X150906287Y-87024500D01*
X150693713Y-87024500D01*
X150653697Y-87030838D01*
X150483760Y-87057753D01*
X150483757Y-87057754D01*
X150291354Y-87120270D01*
X150281585Y-87123444D01*
X150092179Y-87219951D01*
X149920215Y-87344889D01*
X149781398Y-87483706D01*
X149720075Y-87517190D01*
X149650383Y-87512206D01*
X149594450Y-87470334D01*
X149588178Y-87461120D01*
X149563973Y-87421878D01*
X149492712Y-87306344D01*
X149368656Y-87182288D01*
X149268108Y-87120270D01*
X149219336Y-87090187D01*
X149219331Y-87090185D01*
X149197138Y-87082831D01*
X149052797Y-87035001D01*
X149052795Y-87035000D01*
X148950010Y-87024500D01*
X147649998Y-87024500D01*
X147649981Y-87024501D01*
X147547203Y-87035000D01*
X147547200Y-87035001D01*
X147380668Y-87090185D01*
X147380663Y-87090187D01*
X147231342Y-87182289D01*
X147107289Y-87306342D01*
X147015187Y-87455663D01*
X147015185Y-87455668D01*
X147010325Y-87470334D01*
X146960001Y-87622203D01*
X146960001Y-87622204D01*
X146960000Y-87622204D01*
X146949500Y-87724983D01*
X146949500Y-87775500D01*
X146929815Y-87842539D01*
X146877011Y-87888294D01*
X146825500Y-87899500D01*
X143124755Y-87899500D01*
X143102825Y-87893060D01*
X143080051Y-87891161D01*
X143069940Y-87883404D01*
X143057716Y-87879815D01*
X143042752Y-87862545D01*
X143024616Y-87848632D01*
X143017119Y-87832963D01*
X143011961Y-87827011D01*
X143008069Y-87817457D01*
X143006318Y-87812587D01*
X142968277Y-87670616D01*
X142968277Y-87670615D01*
X142939339Y-87620495D01*
X142889220Y-87533684D01*
X142777416Y-87421880D01*
X142777415Y-87421879D01*
X142773085Y-87417549D01*
X142773074Y-87417539D01*
X133739890Y-78384355D01*
X133739888Y-78384352D01*
X133621017Y-78265481D01*
X133621009Y-78265475D01*
X133522364Y-78208523D01*
X133522362Y-78208522D01*
X133484090Y-78186425D01*
X133484089Y-78186424D01*
X133448489Y-78176885D01*
X133331357Y-78145499D01*
X133173243Y-78145499D01*
X133165647Y-78145499D01*
X133165631Y-78145500D01*
X125828598Y-78145500D01*
X125761559Y-78125815D01*
X125740917Y-78109181D01*
X125036082Y-77404346D01*
X125002597Y-77343023D01*
X125007581Y-77273331D01*
X125049453Y-77217398D01*
X125067466Y-77206181D01*
X125167816Y-77155051D01*
X125246140Y-77098146D01*
X125339786Y-77030109D01*
X125339788Y-77030106D01*
X125339792Y-77030104D01*
X125490104Y-76879792D01*
X125490106Y-76879788D01*
X125490109Y-76879786D01*
X125615048Y-76707820D01*
X125615047Y-76707820D01*
X125615051Y-76707816D01*
X125711557Y-76518412D01*
X125777246Y-76316243D01*
X125810500Y-76106287D01*
X125810500Y-75893713D01*
X125777246Y-75683757D01*
X125711557Y-75481588D01*
X125615051Y-75292184D01*
X125582370Y-75247202D01*
X125509777Y-75147285D01*
X125486297Y-75081479D01*
X125502123Y-75013425D01*
X125552229Y-74964730D01*
X125610095Y-74950400D01*
X128389905Y-74950400D01*
X128456944Y-74970085D01*
X128502699Y-75022889D01*
X128512643Y-75092047D01*
X128490223Y-75147285D01*
X128384951Y-75292180D01*
X128288444Y-75481585D01*
X128222753Y-75683760D01*
X128189500Y-75893713D01*
X128189500Y-76106286D01*
X128219418Y-76295185D01*
X128222754Y-76316243D01*
X128278295Y-76487181D01*
X128288444Y-76518414D01*
X128384951Y-76707820D01*
X128509890Y-76879786D01*
X128660213Y-77030109D01*
X128832179Y-77155048D01*
X128832181Y-77155049D01*
X128832184Y-77155051D01*
X129021588Y-77251557D01*
X129223757Y-77317246D01*
X129433713Y-77350500D01*
X129433714Y-77350500D01*
X129646286Y-77350500D01*
X129646287Y-77350500D01*
X129856243Y-77317246D01*
X130058412Y-77251557D01*
X130247816Y-77155051D01*
X130326140Y-77098146D01*
X130419786Y-77030109D01*
X130419788Y-77030106D01*
X130419792Y-77030104D01*
X130570104Y-76879792D01*
X130570106Y-76879788D01*
X130570109Y-76879786D01*
X130695048Y-76707820D01*
X130695047Y-76707820D01*
X130695051Y-76707816D01*
X130699514Y-76699054D01*
X130747488Y-76648259D01*
X130815308Y-76631463D01*
X130881444Y-76653999D01*
X130920486Y-76699056D01*
X130924951Y-76707820D01*
X131049890Y-76879786D01*
X131200213Y-77030109D01*
X131372179Y-77155048D01*
X131372181Y-77155049D01*
X131372184Y-77155051D01*
X131561588Y-77251557D01*
X131763757Y-77317246D01*
X131973713Y-77350500D01*
X131973714Y-77350500D01*
X132186286Y-77350500D01*
X132186287Y-77350500D01*
X132396243Y-77317246D01*
X132598412Y-77251557D01*
X132787816Y-77155051D01*
X132866140Y-77098146D01*
X132959786Y-77030109D01*
X132959788Y-77030106D01*
X132959792Y-77030104D01*
X133110104Y-76879792D01*
X133110106Y-76879788D01*
X133110109Y-76879786D01*
X133235048Y-76707820D01*
X133235047Y-76707820D01*
X133235051Y-76707816D01*
X133331557Y-76518412D01*
X133397246Y-76316243D01*
X133430500Y-76106287D01*
X133430500Y-75893713D01*
X133397246Y-75683757D01*
X133331557Y-75481588D01*
X133235051Y-75292184D01*
X133202370Y-75247202D01*
X133129777Y-75147285D01*
X133106297Y-75081479D01*
X133122123Y-75013425D01*
X133172229Y-74964730D01*
X133230095Y-74950400D01*
X154462905Y-74950400D01*
X154529944Y-74970085D01*
X154575699Y-75022889D01*
X154585643Y-75092047D01*
X154580836Y-75112718D01*
X154557753Y-75183759D01*
X154524500Y-75393713D01*
X154524500Y-75606286D01*
X154540245Y-75705700D01*
X154557754Y-75816243D01*
X154583725Y-75896174D01*
X154623444Y-76018414D01*
X154719951Y-76207820D01*
X154844890Y-76379786D01*
X154995213Y-76530109D01*
X155167179Y-76655048D01*
X155167181Y-76655049D01*
X155167184Y-76655051D01*
X155356588Y-76751557D01*
X155558757Y-76817246D01*
X155768713Y-76850500D01*
X155768714Y-76850500D01*
X156231286Y-76850500D01*
X156231287Y-76850500D01*
X156441243Y-76817246D01*
X156643412Y-76751557D01*
X156832816Y-76655051D01*
X156865282Y-76631463D01*
X157004786Y-76530109D01*
X157004788Y-76530106D01*
X157004792Y-76530104D01*
X157155104Y-76379792D01*
X157155106Y-76379788D01*
X157155109Y-76379786D01*
X157280048Y-76207820D01*
X157280047Y-76207820D01*
X157280051Y-76207816D01*
X157376557Y-76018412D01*
X157442246Y-75816243D01*
X157475500Y-75606287D01*
X157475500Y-75393713D01*
X157442246Y-75183757D01*
X157419164Y-75112718D01*
X157417169Y-75042876D01*
X157453250Y-74983044D01*
X157515951Y-74952216D01*
X157537095Y-74950400D01*
X163462905Y-74950400D01*
X163529944Y-74970085D01*
X163575699Y-75022889D01*
X163585643Y-75092047D01*
X163580836Y-75112718D01*
X163557753Y-75183759D01*
X163524500Y-75393713D01*
X163524500Y-75606286D01*
X163540245Y-75705700D01*
X163557754Y-75816243D01*
X163583725Y-75896174D01*
X163623444Y-76018414D01*
X163719951Y-76207820D01*
X163844890Y-76379786D01*
X163995213Y-76530109D01*
X164167179Y-76655048D01*
X164167181Y-76655049D01*
X164167184Y-76655051D01*
X164356588Y-76751557D01*
X164558757Y-76817246D01*
X164768713Y-76850500D01*
X164768714Y-76850500D01*
X165231286Y-76850500D01*
X165231287Y-76850500D01*
X165441243Y-76817246D01*
X165643412Y-76751557D01*
X165832816Y-76655051D01*
X165907900Y-76600500D01*
X165952515Y-76568086D01*
X166018321Y-76544606D01*
X166086375Y-76560432D01*
X166135070Y-76610538D01*
X166149400Y-76668404D01*
X166149400Y-78450002D01*
X166129715Y-78517041D01*
X166113081Y-78537683D01*
X165537583Y-79113181D01*
X165476260Y-79146666D01*
X165449902Y-79149500D01*
X164224998Y-79149500D01*
X164224981Y-79149501D01*
X164122203Y-79160000D01*
X164122200Y-79160001D01*
X163955668Y-79215185D01*
X163955663Y-79215187D01*
X163806342Y-79307289D01*
X163682289Y-79431342D01*
X163590187Y-79580663D01*
X163590186Y-79580666D01*
X163535002Y-79747202D01*
X163535001Y-79747204D01*
X163535000Y-79747205D01*
X163530823Y-79788102D01*
X163504427Y-79852793D01*
X163447247Y-79892945D01*
X163407465Y-79899500D01*
X157592535Y-79899500D01*
X157525496Y-79879815D01*
X157479741Y-79827011D01*
X157469177Y-79788102D01*
X157468663Y-79783071D01*
X157464999Y-79747203D01*
X157409814Y-79580666D01*
X157317712Y-79431344D01*
X157193656Y-79307288D01*
X157085900Y-79240824D01*
X157044336Y-79215187D01*
X157044331Y-79215185D01*
X157022093Y-79207816D01*
X156877797Y-79160001D01*
X156877795Y-79160000D01*
X156775010Y-79149500D01*
X155224998Y-79149500D01*
X155224981Y-79149501D01*
X155122203Y-79160000D01*
X155122200Y-79160001D01*
X154955668Y-79215185D01*
X154955663Y-79215187D01*
X154806342Y-79307289D01*
X154682289Y-79431342D01*
X154590187Y-79580663D01*
X154590186Y-79580666D01*
X154535001Y-79747203D01*
X154535001Y-79747204D01*
X154535000Y-79747204D01*
X154524500Y-79849983D01*
X154524500Y-81150001D01*
X154524501Y-81150018D01*
X154535000Y-81252796D01*
X154535001Y-81252799D01*
X154558641Y-81324138D01*
X154590186Y-81419334D01*
X154682288Y-81568656D01*
X154806344Y-81692712D01*
X154955666Y-81784814D01*
X155122203Y-81839999D01*
X155224991Y-81850500D01*
X156605882Y-81850499D01*
X156672921Y-81870184D01*
X156718676Y-81922987D01*
X156728620Y-81992146D01*
X156727500Y-81998689D01*
X156724500Y-82013772D01*
X156724500Y-82186233D01*
X156758143Y-82355366D01*
X156758146Y-82355378D01*
X156824138Y-82514698D01*
X156824145Y-82514711D01*
X156919954Y-82658098D01*
X156919957Y-82658102D01*
X157041897Y-82780042D01*
X157041901Y-82780045D01*
X157185288Y-82875854D01*
X157185301Y-82875861D01*
X157344621Y-82941853D01*
X157344626Y-82941855D01*
X157513766Y-82975499D01*
X157513769Y-82975500D01*
X157513771Y-82975500D01*
X157686231Y-82975500D01*
X157686232Y-82975499D01*
X157855374Y-82941855D01*
X158014705Y-82875858D01*
X158158099Y-82780045D01*
X158280045Y-82658099D01*
X158375858Y-82514705D01*
X158441855Y-82355374D01*
X158475500Y-82186229D01*
X158475500Y-82013771D01*
X158475500Y-82013768D01*
X158475499Y-82013766D01*
X158472500Y-81998689D01*
X158441855Y-81844626D01*
X158441853Y-81844621D01*
X158375861Y-81685301D01*
X158375854Y-81685288D01*
X158280045Y-81541901D01*
X158280042Y-81541897D01*
X158158102Y-81419957D01*
X158158098Y-81419954D01*
X158019884Y-81327602D01*
X157975079Y-81273990D01*
X157966372Y-81204665D01*
X157996527Y-81141637D01*
X158055970Y-81104918D01*
X158088775Y-81100500D01*
X163407465Y-81100500D01*
X163474504Y-81120185D01*
X163520259Y-81172989D01*
X163530823Y-81211898D01*
X163535001Y-81252797D01*
X163535001Y-81252799D01*
X163558641Y-81324138D01*
X163590186Y-81419334D01*
X163682288Y-81568656D01*
X163806344Y-81692712D01*
X163955666Y-81784814D01*
X164122203Y-81839999D01*
X164224991Y-81850500D01*
X165605882Y-81850499D01*
X165672921Y-81870184D01*
X165718676Y-81922987D01*
X165728620Y-81992146D01*
X165727500Y-81998689D01*
X165724500Y-82013772D01*
X165724500Y-82186233D01*
X165758143Y-82355366D01*
X165758146Y-82355378D01*
X165824138Y-82514698D01*
X165824145Y-82514711D01*
X165919954Y-82658098D01*
X165919957Y-82658102D01*
X166041897Y-82780042D01*
X166041901Y-82780045D01*
X166185288Y-82875854D01*
X166185301Y-82875861D01*
X166344621Y-82941853D01*
X166344626Y-82941855D01*
X166513766Y-82975499D01*
X166513769Y-82975500D01*
X166513771Y-82975500D01*
X166686231Y-82975500D01*
X166686232Y-82975499D01*
X166855374Y-82941855D01*
X167014705Y-82875858D01*
X167158099Y-82780045D01*
X167280045Y-82658099D01*
X167375858Y-82514705D01*
X167441855Y-82355374D01*
X167475500Y-82186229D01*
X167475500Y-82013771D01*
X167475500Y-82013768D01*
X167475499Y-82013766D01*
X167472500Y-81998689D01*
X167441855Y-81844626D01*
X167441853Y-81844621D01*
X167375861Y-81685301D01*
X167375854Y-81685288D01*
X167280045Y-81541901D01*
X167280042Y-81541897D01*
X167158102Y-81419957D01*
X167158098Y-81419954D01*
X167014711Y-81324145D01*
X167014698Y-81324138D01*
X166855378Y-81258146D01*
X166855366Y-81258143D01*
X166686232Y-81224500D01*
X166686229Y-81224500D01*
X166599500Y-81224500D01*
X166532461Y-81204815D01*
X166486706Y-81152011D01*
X166475500Y-81100500D01*
X166475499Y-79925096D01*
X166495184Y-79858057D01*
X166511813Y-79837420D01*
X167108406Y-79240828D01*
X167108411Y-79240824D01*
X167118614Y-79230620D01*
X167118616Y-79230620D01*
X167230420Y-79118816D01*
X167293120Y-79010215D01*
X167309477Y-78981885D01*
X167350400Y-78829158D01*
X167350400Y-78671043D01*
X167350400Y-70588959D01*
X167350401Y-70588946D01*
X167350401Y-70420845D01*
X167350401Y-70420843D01*
X167309477Y-70268115D01*
X167267950Y-70196189D01*
X167267950Y-70196187D01*
X167230424Y-70131190D01*
X167230421Y-70131186D01*
X167230420Y-70131184D01*
X167118616Y-70019380D01*
X167118615Y-70019379D01*
X167114285Y-70015049D01*
X167114274Y-70015039D01*
X161011818Y-63912583D01*
X160978333Y-63851260D01*
X160975499Y-63824902D01*
X160975499Y-62599998D01*
X160975498Y-62599981D01*
X160964999Y-62497203D01*
X160964998Y-62497200D01*
X160960593Y-62483907D01*
X160909814Y-62330666D01*
X160817712Y-62181344D01*
X160693656Y-62057288D01*
X160544334Y-61965186D01*
X160377797Y-61910001D01*
X160377795Y-61910000D01*
X160275010Y-61899500D01*
X158724998Y-61899500D01*
X158724981Y-61899501D01*
X158622203Y-61910000D01*
X158622200Y-61910001D01*
X158455668Y-61965185D01*
X158455663Y-61965187D01*
X158306342Y-62057289D01*
X158182289Y-62181342D01*
X158090187Y-62330663D01*
X158090185Y-62330668D01*
X158076353Y-62372410D01*
X158035001Y-62497203D01*
X158035001Y-62497204D01*
X158035000Y-62497204D01*
X158024500Y-62599983D01*
X158024500Y-63900001D01*
X158024501Y-63900018D01*
X158035000Y-64002796D01*
X158035001Y-64002799D01*
X158068478Y-64103825D01*
X158090186Y-64169334D01*
X158182288Y-64318656D01*
X158306344Y-64442712D01*
X158455666Y-64534814D01*
X158622203Y-64589999D01*
X158724991Y-64600500D01*
X159949902Y-64600499D01*
X160016941Y-64620184D01*
X160037583Y-64636818D01*
X166113081Y-70712316D01*
X166146566Y-70773639D01*
X166149400Y-70799997D01*
X166149400Y-71831595D01*
X166129715Y-71898634D01*
X166076911Y-71944389D01*
X166007753Y-71954333D01*
X165952516Y-71931914D01*
X165832818Y-71844950D01*
X165639071Y-71746231D01*
X165639743Y-71744910D01*
X165590479Y-71705207D01*
X165572564Y-71666586D01*
X165571179Y-71661416D01*
X165559577Y-71618116D01*
X165559573Y-71618109D01*
X165480524Y-71481190D01*
X165480518Y-71481182D01*
X165368717Y-71369381D01*
X165368709Y-71369375D01*
X165231790Y-71290326D01*
X165231786Y-71290324D01*
X165231784Y-71290323D01*
X165079057Y-71249400D01*
X165079056Y-71249400D01*
X125107097Y-71249400D01*
X125040058Y-71229715D01*
X124994303Y-71176911D01*
X124984359Y-71107753D01*
X125013384Y-71044197D01*
X125019416Y-71037719D01*
X134555559Y-61501577D01*
X164749500Y-61501577D01*
X164749500Y-62498422D01*
X164780290Y-62692826D01*
X164841117Y-62880029D01*
X164905646Y-63006673D01*
X164930476Y-63055405D01*
X165046172Y-63214646D01*
X165185354Y-63353828D01*
X165344595Y-63469524D01*
X165370769Y-63482860D01*
X165519970Y-63558882D01*
X165519972Y-63558882D01*
X165519975Y-63558884D01*
X165588555Y-63581167D01*
X165707173Y-63619709D01*
X165901578Y-63650500D01*
X165901583Y-63650500D01*
X166098422Y-63650500D01*
X166292826Y-63619709D01*
X166336298Y-63605584D01*
X166480025Y-63558884D01*
X166655405Y-63469524D01*
X166814646Y-63353828D01*
X166953828Y-63214646D01*
X167069524Y-63055405D01*
X167158884Y-62880025D01*
X167219709Y-62692826D01*
X167232033Y-62615014D01*
X167250500Y-62498422D01*
X167250500Y-61501577D01*
X167219709Y-61307173D01*
X167191487Y-61220317D01*
X167158884Y-61119975D01*
X167158882Y-61119972D01*
X167158882Y-61119970D01*
X167069523Y-60944594D01*
X167022458Y-60879815D01*
X166953828Y-60785354D01*
X166814646Y-60646172D01*
X166655405Y-60530476D01*
X166480029Y-60441117D01*
X166292826Y-60380290D01*
X166098422Y-60349500D01*
X166098417Y-60349500D01*
X165901583Y-60349500D01*
X165901578Y-60349500D01*
X165707173Y-60380290D01*
X165519970Y-60441117D01*
X165344594Y-60530476D01*
X165301031Y-60562127D01*
X165185354Y-60646172D01*
X165185352Y-60646174D01*
X165185351Y-60646174D01*
X165046174Y-60785351D01*
X165046174Y-60785352D01*
X165046172Y-60785354D01*
X164996485Y-60853741D01*
X164930476Y-60944594D01*
X164841117Y-61119970D01*
X164780290Y-61307173D01*
X164749500Y-61501577D01*
X134555559Y-61501577D01*
X134648106Y-61409030D01*
X136873822Y-59183314D01*
X139230520Y-56826616D01*
X139309577Y-56689684D01*
X139350501Y-56536957D01*
X139350501Y-56378842D01*
X139350501Y-56371247D01*
X139350500Y-56371229D01*
X139350500Y-52910718D01*
X139370185Y-52843679D01*
X139418207Y-52800233D01*
X139457815Y-52780052D01*
X139457815Y-52780051D01*
X139457816Y-52780051D01*
X139616499Y-52664762D01*
X139629784Y-52655110D01*
X139629784Y-52655109D01*
X139629792Y-52655104D01*
X139768604Y-52516291D01*
X139829923Y-52482809D01*
X139899615Y-52487793D01*
X139955549Y-52529664D01*
X139961821Y-52538878D01*
X139965185Y-52544333D01*
X139965186Y-52544334D01*
X140057288Y-52693656D01*
X140181344Y-52817712D01*
X140330666Y-52909814D01*
X140497203Y-52964999D01*
X140599991Y-52975500D01*
X141900008Y-52975499D01*
X142002797Y-52964999D01*
X142169334Y-52909814D01*
X142318656Y-52817712D01*
X142442712Y-52693656D01*
X142534814Y-52544334D01*
X142589999Y-52377797D01*
X142600500Y-52275009D01*
X142600499Y-50936399D01*
X142620184Y-50869361D01*
X142672987Y-50823606D01*
X142724499Y-50812400D01*
X145011703Y-50812400D01*
X145078742Y-50832085D01*
X145099384Y-50848719D01*
X146115039Y-51864374D01*
X146115049Y-51864385D01*
X146119379Y-51868715D01*
X146119380Y-51868716D01*
X146231184Y-51980520D01*
X146231186Y-51980521D01*
X146231190Y-51980524D01*
X146325190Y-52034794D01*
X146368116Y-52059577D01*
X146416586Y-52072564D01*
X146476245Y-52108927D01*
X146495575Y-52139405D01*
X146496231Y-52139071D01*
X146594951Y-52332820D01*
X146719890Y-52504786D01*
X146870213Y-52655109D01*
X147042179Y-52780048D01*
X147042181Y-52780049D01*
X147042184Y-52780051D01*
X147231588Y-52876557D01*
X147433757Y-52942246D01*
X147643713Y-52975500D01*
X147643714Y-52975500D01*
X147856286Y-52975500D01*
X147856287Y-52975500D01*
X148066243Y-52942246D01*
X148268412Y-52876557D01*
X148457816Y-52780051D01*
X148522015Y-52733408D01*
X148629784Y-52655110D01*
X148629784Y-52655109D01*
X148629792Y-52655104D01*
X148768604Y-52516291D01*
X148829923Y-52482809D01*
X148899615Y-52487793D01*
X148955549Y-52529664D01*
X148961821Y-52538878D01*
X148965185Y-52544333D01*
X148965186Y-52544334D01*
X149057288Y-52693656D01*
X149181344Y-52817712D01*
X149330666Y-52909814D01*
X149497203Y-52964999D01*
X149599991Y-52975500D01*
X150900008Y-52975499D01*
X151002797Y-52964999D01*
X151169334Y-52909814D01*
X151318656Y-52817712D01*
X151442712Y-52693656D01*
X151534814Y-52544334D01*
X151589999Y-52377797D01*
X151600500Y-52275009D01*
X151600499Y-50724992D01*
X151593432Y-50655815D01*
X151589999Y-50622203D01*
X151574425Y-50575205D01*
X151572023Y-50505376D01*
X151607754Y-50445334D01*
X151670275Y-50414141D01*
X151692131Y-50412200D01*
X154761603Y-50412200D01*
X154828642Y-50431885D01*
X154849284Y-50448519D01*
X157988181Y-53587416D01*
X158021666Y-53648739D01*
X158024500Y-53675097D01*
X158024500Y-54900001D01*
X158024501Y-54900018D01*
X158035000Y-55002796D01*
X158035001Y-55002799D01*
X158090185Y-55169331D01*
X158090187Y-55169336D01*
X158125069Y-55225888D01*
X158182288Y-55318656D01*
X158306344Y-55442712D01*
X158455666Y-55534814D01*
X158622203Y-55589999D01*
X158724991Y-55600500D01*
X160275008Y-55600499D01*
X160377797Y-55589999D01*
X160544334Y-55534814D01*
X160693656Y-55442712D01*
X160817712Y-55318656D01*
X160909814Y-55169334D01*
X160964999Y-55002797D01*
X160975500Y-54900009D01*
X160975499Y-53599992D01*
X160964999Y-53497203D01*
X160909814Y-53330666D01*
X160817712Y-53181344D01*
X160693656Y-53057288D01*
X160586883Y-52991430D01*
X160544336Y-52965187D01*
X160544331Y-52965185D01*
X160532341Y-52961212D01*
X160377797Y-52910001D01*
X160377795Y-52910000D01*
X160275016Y-52899500D01*
X160275009Y-52899500D01*
X159050097Y-52899500D01*
X158983058Y-52879815D01*
X158962416Y-52863181D01*
X158600812Y-52501577D01*
X164749500Y-52501577D01*
X164749500Y-53498422D01*
X164780290Y-53692826D01*
X164841117Y-53880029D01*
X164902725Y-54000941D01*
X164930476Y-54055405D01*
X165046172Y-54214646D01*
X165185354Y-54353828D01*
X165344595Y-54469524D01*
X165427455Y-54511743D01*
X165519970Y-54558882D01*
X165519972Y-54558882D01*
X165519975Y-54558884D01*
X165620317Y-54591487D01*
X165707173Y-54619709D01*
X165901578Y-54650500D01*
X165901583Y-54650500D01*
X166098422Y-54650500D01*
X166292826Y-54619709D01*
X166480025Y-54558884D01*
X166655405Y-54469524D01*
X166814646Y-54353828D01*
X166953828Y-54214646D01*
X167069524Y-54055405D01*
X167158884Y-53880025D01*
X167219709Y-53692826D01*
X167233080Y-53608403D01*
X167250500Y-53498422D01*
X167250500Y-52501577D01*
X167219709Y-52307173D01*
X167179452Y-52183277D01*
X167158884Y-52119975D01*
X167158882Y-52119972D01*
X167158882Y-52119970D01*
X167094014Y-51992660D01*
X167069524Y-51944595D01*
X166953828Y-51785354D01*
X166814646Y-51646172D01*
X166655405Y-51530476D01*
X166480029Y-51441117D01*
X166292826Y-51380290D01*
X166098422Y-51349500D01*
X166098417Y-51349500D01*
X165901583Y-51349500D01*
X165901578Y-51349500D01*
X165707173Y-51380290D01*
X165519970Y-51441117D01*
X165344594Y-51530476D01*
X165277729Y-51579057D01*
X165185354Y-51646172D01*
X165185352Y-51646174D01*
X165185351Y-51646174D01*
X165046174Y-51785351D01*
X165046174Y-51785352D01*
X165046172Y-51785354D01*
X164996485Y-51853741D01*
X164930476Y-51944594D01*
X164841117Y-52119970D01*
X164780290Y-52307173D01*
X164749500Y-52501577D01*
X158600812Y-52501577D01*
X155549290Y-49450055D01*
X155549288Y-49450052D01*
X155430417Y-49331181D01*
X155430416Y-49331180D01*
X155343604Y-49281060D01*
X155343604Y-49281059D01*
X155343600Y-49281058D01*
X155293485Y-49252123D01*
X155140757Y-49211199D01*
X154982643Y-49211199D01*
X154975047Y-49211199D01*
X154975031Y-49211200D01*
X138205970Y-49211200D01*
X138205954Y-49211199D01*
X138198358Y-49211199D01*
X138040243Y-49211199D01*
X137999468Y-49222125D01*
X137887514Y-49252123D01*
X137887509Y-49252126D01*
X137750590Y-49331175D01*
X137750582Y-49331181D01*
X134915884Y-52165881D01*
X134854561Y-52199366D01*
X134828203Y-52202200D01*
X130236498Y-52202200D01*
X130207057Y-52193555D01*
X130177071Y-52187032D01*
X130172055Y-52183277D01*
X130169459Y-52182515D01*
X130148817Y-52165881D01*
X130036919Y-52053983D01*
X130003434Y-51992660D01*
X130000600Y-51966302D01*
X130000600Y-51420945D01*
X130000600Y-51420943D01*
X129959677Y-51268216D01*
X129959673Y-51268209D01*
X129880624Y-51131290D01*
X129880618Y-51131282D01*
X129768817Y-51019481D01*
X129768809Y-51019475D01*
X129631890Y-50940426D01*
X129631886Y-50940424D01*
X129631884Y-50940423D01*
X129631882Y-50940422D01*
X129631879Y-50940421D01*
X129583412Y-50927434D01*
X129523752Y-50891069D01*
X129504425Y-50860594D01*
X129503769Y-50860929D01*
X129477077Y-50808543D01*
X129405051Y-50667184D01*
X129405049Y-50667181D01*
X129405048Y-50667179D01*
X129280109Y-50495213D01*
X129129786Y-50344890D01*
X128957820Y-50219951D01*
X128768414Y-50123444D01*
X128768413Y-50123443D01*
X128768412Y-50123443D01*
X128566243Y-50057754D01*
X128566241Y-50057753D01*
X128566240Y-50057753D01*
X128404957Y-50032208D01*
X128356287Y-50024500D01*
X128143713Y-50024500D01*
X128095042Y-50032208D01*
X127933760Y-50057753D01*
X127731585Y-50123444D01*
X127542181Y-50219950D01*
X127384542Y-50334480D01*
X127318736Y-50357959D01*
X127250682Y-50342133D01*
X127223977Y-50321842D01*
X126757690Y-49855555D01*
X126757688Y-49855552D01*
X126638817Y-49736681D01*
X126638816Y-49736680D01*
X126552004Y-49686560D01*
X126552004Y-49686559D01*
X126552000Y-49686558D01*
X126501885Y-49657623D01*
X126349157Y-49616699D01*
X126191043Y-49616699D01*
X126183447Y-49616699D01*
X126183431Y-49616700D01*
X124611857Y-49616700D01*
X124453743Y-49616700D01*
X124301015Y-49657623D01*
X124301014Y-49657623D01*
X124301012Y-49657624D01*
X124301009Y-49657625D01*
X124250896Y-49686559D01*
X124250895Y-49686560D01*
X124207489Y-49711620D01*
X124164085Y-49736679D01*
X124164082Y-49736681D01*
X124052278Y-49848486D01*
X123828867Y-50071896D01*
X123767544Y-50105381D01*
X123702868Y-50102146D01*
X123566240Y-50057753D01*
X123404957Y-50032208D01*
X123356287Y-50024500D01*
X123143713Y-50024500D01*
X123095042Y-50032208D01*
X122933760Y-50057753D01*
X122731585Y-50123444D01*
X122542179Y-50219951D01*
X122370213Y-50344890D01*
X122219890Y-50495213D01*
X122094951Y-50667179D01*
X121998444Y-50856585D01*
X121932753Y-51058760D01*
X121899500Y-51268713D01*
X121899500Y-51731286D01*
X121928944Y-51917191D01*
X121932754Y-51941243D01*
X121997032Y-52139070D01*
X121998444Y-52143414D01*
X122094951Y-52332820D01*
X122219890Y-52504786D01*
X122370213Y-52655109D01*
X122509299Y-52756159D01*
X122542184Y-52780051D01*
X122648562Y-52834253D01*
X122729776Y-52875634D01*
X122780572Y-52923609D01*
X122797367Y-52991430D01*
X122774830Y-53057565D01*
X122761162Y-53073800D01*
X112092781Y-63742182D01*
X112073344Y-63752794D01*
X112056611Y-63767295D01*
X112043279Y-63769211D01*
X112031458Y-63775667D01*
X112009371Y-63774087D01*
X111987453Y-63777239D01*
X111975201Y-63771643D01*
X111961766Y-63770683D01*
X111944039Y-63757412D01*
X111923897Y-63748214D01*
X111916614Y-63736882D01*
X111905833Y-63728811D01*
X111898095Y-63708065D01*
X111886123Y-63689436D01*
X111882971Y-63667517D01*
X111881416Y-63663347D01*
X111881100Y-63654501D01*
X111881100Y-63482860D01*
X111881101Y-63482847D01*
X111881101Y-63314744D01*
X111863330Y-63248422D01*
X111840177Y-63162016D01*
X111840173Y-63162009D01*
X111761124Y-63025090D01*
X111761118Y-63025082D01*
X111715573Y-62979537D01*
X111682088Y-62918214D01*
X111681637Y-62916047D01*
X111680253Y-62909088D01*
X111650737Y-62760703D01*
X111650735Y-62760698D01*
X111590397Y-62615027D01*
X111590390Y-62615014D01*
X111502789Y-62483911D01*
X111502786Y-62483907D01*
X111391292Y-62372413D01*
X111391288Y-62372410D01*
X111260181Y-62284807D01*
X111260172Y-62284802D01*
X111114501Y-62224464D01*
X111114490Y-62224461D01*
X111100408Y-62221660D01*
X111038497Y-62189274D01*
X111003923Y-62128558D01*
X111000600Y-62100043D01*
X111000600Y-52961212D01*
X111020285Y-52894173D01*
X111073089Y-52848418D01*
X111142247Y-52838474D01*
X111180895Y-52850727D01*
X111189596Y-52855161D01*
X111231583Y-52876555D01*
X111231585Y-52876555D01*
X111231588Y-52876557D01*
X111433757Y-52942246D01*
X111643713Y-52975500D01*
X111643714Y-52975500D01*
X111856286Y-52975500D01*
X111856287Y-52975500D01*
X112066243Y-52942246D01*
X112268412Y-52876557D01*
X112457816Y-52780051D01*
X112490701Y-52756159D01*
X112629786Y-52655109D01*
X112629788Y-52655106D01*
X112629792Y-52655104D01*
X112780104Y-52504792D01*
X112899683Y-52340204D01*
X112955011Y-52297540D01*
X113024624Y-52291561D01*
X113086420Y-52324166D01*
X113100313Y-52340199D01*
X113203925Y-52482809D01*
X113219896Y-52504792D01*
X113370213Y-52655109D01*
X113542179Y-52780048D01*
X113542181Y-52780049D01*
X113542184Y-52780051D01*
X113731588Y-52876557D01*
X113933757Y-52942246D01*
X114143713Y-52975500D01*
X114143714Y-52975500D01*
X114356286Y-52975500D01*
X114356287Y-52975500D01*
X114566243Y-52942246D01*
X114768412Y-52876557D01*
X114957816Y-52780051D01*
X114990701Y-52756159D01*
X115129786Y-52655109D01*
X115129788Y-52655106D01*
X115129792Y-52655104D01*
X115280104Y-52504792D01*
X115280106Y-52504788D01*
X115280109Y-52504786D01*
X115405048Y-52332820D01*
X115405047Y-52332820D01*
X115405051Y-52332816D01*
X115501557Y-52143412D01*
X115567246Y-51941243D01*
X115600500Y-51731287D01*
X115600500Y-51268713D01*
X115567246Y-51058757D01*
X115501557Y-50856588D01*
X115405051Y-50667184D01*
X115405049Y-50667181D01*
X115405048Y-50667179D01*
X115280109Y-50495213D01*
X115129786Y-50344890D01*
X114957820Y-50219951D01*
X114768414Y-50123444D01*
X114768413Y-50123443D01*
X114768412Y-50123443D01*
X114566243Y-50057754D01*
X114566241Y-50057753D01*
X114566240Y-50057753D01*
X114404957Y-50032208D01*
X114356287Y-50024500D01*
X114143713Y-50024500D01*
X114095042Y-50032208D01*
X113933760Y-50057753D01*
X113731585Y-50123444D01*
X113542179Y-50219951D01*
X113383501Y-50335237D01*
X113317694Y-50358717D01*
X113249641Y-50342891D01*
X113222935Y-50322600D01*
X112320390Y-49420055D01*
X112320388Y-49420052D01*
X112201517Y-49301181D01*
X112201516Y-49301180D01*
X112111350Y-49249123D01*
X112111349Y-49249122D01*
X112064590Y-49222125D01*
X112064589Y-49222124D01*
X112023820Y-49211200D01*
X111911857Y-49181199D01*
X111753743Y-49181199D01*
X111746147Y-49181199D01*
X111746131Y-49181200D01*
X100473569Y-49181200D01*
X100473553Y-49181199D01*
X100465957Y-49181199D01*
X100307843Y-49181199D01*
X100207079Y-49208199D01*
X100155110Y-49222124D01*
X100155109Y-49222125D01*
X100108351Y-49249122D01*
X100108350Y-49249123D01*
X100103154Y-49252123D01*
X100018185Y-49301179D01*
X100018182Y-49301181D01*
X99906378Y-49412986D01*
X99187580Y-50131783D01*
X99126257Y-50165268D01*
X99056565Y-50160284D01*
X99012218Y-50131783D01*
X98327490Y-49447055D01*
X98327488Y-49447052D01*
X98208617Y-49328181D01*
X98208616Y-49328180D01*
X98121804Y-49278060D01*
X98121804Y-49278059D01*
X98121800Y-49278058D01*
X98071685Y-49249123D01*
X97918957Y-49208199D01*
X97760843Y-49208199D01*
X97753247Y-49208199D01*
X97753231Y-49208200D01*
X88245943Y-49208200D01*
X88093210Y-49249124D01*
X88043096Y-49278059D01*
X88043095Y-49278060D01*
X88037901Y-49281059D01*
X87956285Y-49328179D01*
X87956282Y-49328181D01*
X87844478Y-49439986D01*
X87092204Y-50192259D01*
X87030881Y-50225744D01*
X86961189Y-50220760D01*
X86948229Y-50215063D01*
X86768417Y-50123445D01*
X86768414Y-50123444D01*
X86768412Y-50123443D01*
X86566243Y-50057754D01*
X86566241Y-50057753D01*
X86566240Y-50057753D01*
X86404957Y-50032208D01*
X86356287Y-50024500D01*
X86143713Y-50024500D01*
X86095042Y-50032208D01*
X85933760Y-50057753D01*
X85731585Y-50123444D01*
X85542179Y-50219951D01*
X85370213Y-50344890D01*
X85219894Y-50495209D01*
X85219890Y-50495214D01*
X85100318Y-50659793D01*
X85044989Y-50702459D01*
X84975375Y-50708438D01*
X84913580Y-50675833D01*
X84899682Y-50659793D01*
X84780109Y-50495214D01*
X84780105Y-50495209D01*
X84629786Y-50344890D01*
X84457820Y-50219951D01*
X84268414Y-50123444D01*
X84268413Y-50123443D01*
X84268412Y-50123443D01*
X84066243Y-50057754D01*
X84066241Y-50057753D01*
X84066240Y-50057753D01*
X83904957Y-50032208D01*
X83856287Y-50024500D01*
X83643713Y-50024500D01*
X83595042Y-50032208D01*
X83433760Y-50057753D01*
X83231585Y-50123444D01*
X83042179Y-50219951D01*
X82870213Y-50344890D01*
X82719894Y-50495209D01*
X82719890Y-50495214D01*
X82600318Y-50659793D01*
X82544989Y-50702459D01*
X82475375Y-50708438D01*
X82413580Y-50675833D01*
X82399682Y-50659793D01*
X82280109Y-50495214D01*
X82280105Y-50495209D01*
X82129786Y-50344890D01*
X81957820Y-50219951D01*
X81768414Y-50123444D01*
X81768413Y-50123443D01*
X81768412Y-50123443D01*
X81566243Y-50057754D01*
X81566241Y-50057753D01*
X81566240Y-50057753D01*
X81404957Y-50032208D01*
X81356287Y-50024500D01*
X81143713Y-50024500D01*
X81095042Y-50032208D01*
X80933760Y-50057753D01*
X80731585Y-50123444D01*
X80542179Y-50219951D01*
X80370213Y-50344890D01*
X80219890Y-50495213D01*
X80094951Y-50667179D01*
X79998444Y-50856585D01*
X79932753Y-51058760D01*
X79899500Y-51268713D01*
X70500500Y-51268713D01*
X70500500Y-45798008D01*
X70520185Y-45730969D01*
X70572989Y-45685214D01*
X70642147Y-45675270D01*
X70705703Y-45704295D01*
X70733858Y-45739555D01*
X70822140Y-45904720D01*
X70822151Y-45904738D01*
X71024140Y-46207035D01*
X71024150Y-46207049D01*
X71254807Y-46488106D01*
X71511893Y-46745192D01*
X71511898Y-46745196D01*
X71511899Y-46745197D01*
X71792956Y-46975854D01*
X72095268Y-47177853D01*
X72095277Y-47177858D01*
X72095279Y-47177859D01*
X72415916Y-47349243D01*
X72415918Y-47349243D01*
X72415924Y-47349247D01*
X72751836Y-47488386D01*
X73099767Y-47593930D01*
X73099773Y-47593931D01*
X73099776Y-47593932D01*
X73099787Y-47593935D01*
X73456369Y-47664862D01*
X73818206Y-47700500D01*
X73818209Y-47700500D01*
X74181791Y-47700500D01*
X74181794Y-47700500D01*
X74543631Y-47664862D01*
X74613045Y-47651054D01*
X74900212Y-47593935D01*
X74900223Y-47593932D01*
X74900223Y-47593931D01*
X74900233Y-47593930D01*
X75248164Y-47488386D01*
X75584076Y-47349247D01*
X75904732Y-47177853D01*
X76207044Y-46975854D01*
X76488101Y-46745197D01*
X76745197Y-46488101D01*
X76975854Y-46207044D01*
X77177853Y-45904732D01*
X77349247Y-45584076D01*
X77488386Y-45248164D01*
X77593522Y-44901577D01*
X83349500Y-44901577D01*
X83349500Y-45098422D01*
X83380290Y-45292826D01*
X83441117Y-45480029D01*
X83530476Y-45655405D01*
X83646172Y-45814646D01*
X83785354Y-45953828D01*
X83944595Y-46069524D01*
X84027455Y-46111743D01*
X84119970Y-46158882D01*
X84119972Y-46158882D01*
X84119975Y-46158884D01*
X84220317Y-46191487D01*
X84307173Y-46219709D01*
X84501578Y-46250500D01*
X84501583Y-46250500D01*
X85498422Y-46250500D01*
X85692826Y-46219709D01*
X85731789Y-46207049D01*
X85880025Y-46158884D01*
X86055405Y-46069524D01*
X86214646Y-45953828D01*
X86353828Y-45814646D01*
X86469524Y-45655405D01*
X86558884Y-45480025D01*
X86619709Y-45292826D01*
X86632586Y-45211526D01*
X86650500Y-45098422D01*
X86650500Y-44901577D01*
X97349500Y-44901577D01*
X97349500Y-45098422D01*
X97380290Y-45292826D01*
X97441117Y-45480029D01*
X97530476Y-45655405D01*
X97646172Y-45814646D01*
X97785354Y-45953828D01*
X97944595Y-46069524D01*
X98027455Y-46111743D01*
X98119970Y-46158882D01*
X98119972Y-46158882D01*
X98119975Y-46158884D01*
X98220317Y-46191487D01*
X98307173Y-46219709D01*
X98501578Y-46250500D01*
X98501583Y-46250500D01*
X99498422Y-46250500D01*
X99692826Y-46219709D01*
X99731789Y-46207049D01*
X99880025Y-46158884D01*
X100055405Y-46069524D01*
X100214646Y-45953828D01*
X100353828Y-45814646D01*
X100469524Y-45655405D01*
X100558884Y-45480025D01*
X100619709Y-45292826D01*
X100632586Y-45211526D01*
X100650500Y-45098422D01*
X100650500Y-44901577D01*
X111349500Y-44901577D01*
X111349500Y-45098422D01*
X111380290Y-45292826D01*
X111441117Y-45480029D01*
X111530476Y-45655405D01*
X111646172Y-45814646D01*
X111785354Y-45953828D01*
X111944595Y-46069524D01*
X112027455Y-46111743D01*
X112119970Y-46158882D01*
X112119972Y-46158882D01*
X112119975Y-46158884D01*
X112220317Y-46191487D01*
X112307173Y-46219709D01*
X112501578Y-46250500D01*
X112501583Y-46250500D01*
X113498422Y-46250500D01*
X113692826Y-46219709D01*
X113731789Y-46207049D01*
X113880025Y-46158884D01*
X114055405Y-46069524D01*
X114214646Y-45953828D01*
X114353828Y-45814646D01*
X114469524Y-45655405D01*
X114558884Y-45480025D01*
X114619709Y-45292826D01*
X114632586Y-45211526D01*
X114650500Y-45098422D01*
X114650500Y-44901577D01*
X125349500Y-44901577D01*
X125349500Y-45098422D01*
X125380290Y-45292826D01*
X125441117Y-45480029D01*
X125530476Y-45655405D01*
X125646172Y-45814646D01*
X125785354Y-45953828D01*
X125944595Y-46069524D01*
X126027455Y-46111743D01*
X126119970Y-46158882D01*
X126119972Y-46158882D01*
X126119975Y-46158884D01*
X126220317Y-46191487D01*
X126307173Y-46219709D01*
X126501578Y-46250500D01*
X126501583Y-46250500D01*
X127498422Y-46250500D01*
X127692826Y-46219709D01*
X127731789Y-46207049D01*
X127880025Y-46158884D01*
X128055405Y-46069524D01*
X128214646Y-45953828D01*
X128353828Y-45814646D01*
X128469524Y-45655405D01*
X128558884Y-45480025D01*
X128619709Y-45292826D01*
X128632586Y-45211526D01*
X128650500Y-45098422D01*
X128650500Y-44901577D01*
X138349500Y-44901577D01*
X138349500Y-45098422D01*
X138380290Y-45292826D01*
X138441117Y-45480029D01*
X138530476Y-45655405D01*
X138646172Y-45814646D01*
X138785354Y-45953828D01*
X138944595Y-46069524D01*
X139027455Y-46111743D01*
X139119970Y-46158882D01*
X139119972Y-46158882D01*
X139119975Y-46158884D01*
X139220317Y-46191487D01*
X139307173Y-46219709D01*
X139501578Y-46250500D01*
X139501583Y-46250500D01*
X140498422Y-46250500D01*
X140692826Y-46219709D01*
X140731789Y-46207049D01*
X140880025Y-46158884D01*
X141055405Y-46069524D01*
X141214646Y-45953828D01*
X141353828Y-45814646D01*
X141469524Y-45655405D01*
X141558884Y-45480025D01*
X141619709Y-45292826D01*
X141632586Y-45211526D01*
X141650500Y-45098422D01*
X141650500Y-44901577D01*
X147349500Y-44901577D01*
X147349500Y-45098422D01*
X147380290Y-45292826D01*
X147441117Y-45480029D01*
X147530476Y-45655405D01*
X147646172Y-45814646D01*
X147785354Y-45953828D01*
X147944595Y-46069524D01*
X148027455Y-46111743D01*
X148119970Y-46158882D01*
X148119972Y-46158882D01*
X148119975Y-46158884D01*
X148220317Y-46191487D01*
X148307173Y-46219709D01*
X148501578Y-46250500D01*
X148501583Y-46250500D01*
X149498422Y-46250500D01*
X149692826Y-46219709D01*
X149731789Y-46207049D01*
X149880025Y-46158884D01*
X150055405Y-46069524D01*
X150214646Y-45953828D01*
X150353828Y-45814646D01*
X150469524Y-45655405D01*
X150558884Y-45480025D01*
X150619709Y-45292826D01*
X150632586Y-45211526D01*
X150650500Y-45098422D01*
X150650500Y-44901577D01*
X150619709Y-44707173D01*
X150558882Y-44519970D01*
X150469523Y-44344594D01*
X150353828Y-44185354D01*
X150214646Y-44046172D01*
X150055405Y-43930476D01*
X149880029Y-43841117D01*
X149692826Y-43780290D01*
X149498422Y-43749500D01*
X149498417Y-43749500D01*
X148501583Y-43749500D01*
X148501578Y-43749500D01*
X148307173Y-43780290D01*
X148119970Y-43841117D01*
X147944594Y-43930476D01*
X147853741Y-43996485D01*
X147785354Y-44046172D01*
X147785352Y-44046174D01*
X147785351Y-44046174D01*
X147646174Y-44185351D01*
X147646174Y-44185352D01*
X147646172Y-44185354D01*
X147596485Y-44253741D01*
X147530476Y-44344594D01*
X147441117Y-44519970D01*
X147380290Y-44707173D01*
X147349500Y-44901577D01*
X141650500Y-44901577D01*
X141619709Y-44707173D01*
X141558882Y-44519970D01*
X141469523Y-44344594D01*
X141353828Y-44185354D01*
X141214646Y-44046172D01*
X141055405Y-43930476D01*
X140880029Y-43841117D01*
X140692826Y-43780290D01*
X140498422Y-43749500D01*
X140498417Y-43749500D01*
X139501583Y-43749500D01*
X139501578Y-43749500D01*
X139307173Y-43780290D01*
X139119970Y-43841117D01*
X138944594Y-43930476D01*
X138853741Y-43996485D01*
X138785354Y-44046172D01*
X138785352Y-44046174D01*
X138785351Y-44046174D01*
X138646174Y-44185351D01*
X138646174Y-44185352D01*
X138646172Y-44185354D01*
X138596485Y-44253741D01*
X138530476Y-44344594D01*
X138441117Y-44519970D01*
X138380290Y-44707173D01*
X138349500Y-44901577D01*
X128650500Y-44901577D01*
X128619709Y-44707173D01*
X128558882Y-44519970D01*
X128469523Y-44344594D01*
X128353828Y-44185354D01*
X128214646Y-44046172D01*
X128055405Y-43930476D01*
X127880029Y-43841117D01*
X127692826Y-43780290D01*
X127498422Y-43749500D01*
X127498417Y-43749500D01*
X126501583Y-43749500D01*
X126501578Y-43749500D01*
X126307173Y-43780290D01*
X126119970Y-43841117D01*
X125944594Y-43930476D01*
X125853741Y-43996485D01*
X125785354Y-44046172D01*
X125785352Y-44046174D01*
X125785351Y-44046174D01*
X125646174Y-44185351D01*
X125646174Y-44185352D01*
X125646172Y-44185354D01*
X125596485Y-44253741D01*
X125530476Y-44344594D01*
X125441117Y-44519970D01*
X125380290Y-44707173D01*
X125349500Y-44901577D01*
X114650500Y-44901577D01*
X114619709Y-44707173D01*
X114558882Y-44519970D01*
X114469523Y-44344594D01*
X114353828Y-44185354D01*
X114214646Y-44046172D01*
X114055405Y-43930476D01*
X113880029Y-43841117D01*
X113692826Y-43780290D01*
X113498422Y-43749500D01*
X113498417Y-43749500D01*
X112501583Y-43749500D01*
X112501578Y-43749500D01*
X112307173Y-43780290D01*
X112119970Y-43841117D01*
X111944594Y-43930476D01*
X111853741Y-43996485D01*
X111785354Y-44046172D01*
X111785352Y-44046174D01*
X111785351Y-44046174D01*
X111646174Y-44185351D01*
X111646174Y-44185352D01*
X111646172Y-44185354D01*
X111596485Y-44253741D01*
X111530476Y-44344594D01*
X111441117Y-44519970D01*
X111380290Y-44707173D01*
X111349500Y-44901577D01*
X100650500Y-44901577D01*
X100619709Y-44707173D01*
X100558882Y-44519970D01*
X100469523Y-44344594D01*
X100353828Y-44185354D01*
X100214646Y-44046172D01*
X100055405Y-43930476D01*
X99880029Y-43841117D01*
X99692826Y-43780290D01*
X99498422Y-43749500D01*
X99498417Y-43749500D01*
X98501583Y-43749500D01*
X98501578Y-43749500D01*
X98307173Y-43780290D01*
X98119970Y-43841117D01*
X97944594Y-43930476D01*
X97853741Y-43996485D01*
X97785354Y-44046172D01*
X97785352Y-44046174D01*
X97785351Y-44046174D01*
X97646174Y-44185351D01*
X97646174Y-44185352D01*
X97646172Y-44185354D01*
X97596485Y-44253741D01*
X97530476Y-44344594D01*
X97441117Y-44519970D01*
X97380290Y-44707173D01*
X97349500Y-44901577D01*
X86650500Y-44901577D01*
X86619709Y-44707173D01*
X86558882Y-44519970D01*
X86469523Y-44344594D01*
X86353828Y-44185354D01*
X86214646Y-44046172D01*
X86055405Y-43930476D01*
X85880029Y-43841117D01*
X85692826Y-43780290D01*
X85498422Y-43749500D01*
X85498417Y-43749500D01*
X84501583Y-43749500D01*
X84501578Y-43749500D01*
X84307173Y-43780290D01*
X84119970Y-43841117D01*
X83944594Y-43930476D01*
X83853741Y-43996485D01*
X83785354Y-44046172D01*
X83785352Y-44046174D01*
X83785351Y-44046174D01*
X83646174Y-44185351D01*
X83646174Y-44185352D01*
X83646172Y-44185354D01*
X83596485Y-44253741D01*
X83530476Y-44344594D01*
X83441117Y-44519970D01*
X83380290Y-44707173D01*
X83349500Y-44901577D01*
X77593522Y-44901577D01*
X77593930Y-44900233D01*
X77664862Y-44543631D01*
X77700500Y-44181794D01*
X77700500Y-43818206D01*
X77664862Y-43456369D01*
X77593935Y-43099787D01*
X77593932Y-43099776D01*
X77593931Y-43099773D01*
X77593930Y-43099767D01*
X77488386Y-42751836D01*
X77349247Y-42415924D01*
X77206264Y-42148422D01*
X77177859Y-42095279D01*
X77177858Y-42095277D01*
X77177853Y-42095268D01*
X76975854Y-41792956D01*
X76745197Y-41511899D01*
X76745196Y-41511898D01*
X76745192Y-41511893D01*
X76488106Y-41254807D01*
X76207049Y-41024150D01*
X76207048Y-41024149D01*
X76207044Y-41024146D01*
X75904732Y-40822147D01*
X75904727Y-40822144D01*
X75904720Y-40822140D01*
X75739555Y-40733858D01*
X75689711Y-40684896D01*
X75674250Y-40616758D01*
X75698082Y-40551079D01*
X75753639Y-40508710D01*
X75798008Y-40500500D01*
X164201992Y-40500500D01*
X164269031Y-40520185D01*
G37*
%TD.AperFunction*%
%TD*%
M02*
