M48
; DRILL file {KiCad 9.0.1} date 2025-05-30T13:12:11+0900
; FORMAT={-:-/ absolute / inch / decimal}
; #@! TF.CreationDate,2025-05-30T13:12:11+09:00
; #@! TF.GenerationSoftware,Kicad,Pcbnew,9.0.1
; #@! TF.FileFunction,Plated,1,2,PTH
FMAT,2
INCH
; #@! TA.AperFunction,Plated,PTH,ViaDrill
T1C0.0118
; #@! TA.AperFunction,Plated,PTH,ComponentDrill
T2C0.0197
; #@! TA.AperFunction,Plated,PTH,ComponentDrill
T3C0.0374
; #@! TA.AperFunction,Plated,PTH,ComponentDrill
T4C0.0394
; #@! TA.AperFunction,Plated,PTH,ComponentDrill
T5C0.1260
%
G90
G05
T1
X3.2358Y-3.4134
X3.6448Y-2.9714
X3.6603Y-3.1415
X3.7261Y-2.938
X3.7771Y-2.6152
X3.8694Y-2.5731
X3.92Y-2.7765
X3.9405Y-2.7242
X4.0722Y-2.5621
X4.0987Y-2.3916
X4.1152Y-2.9476
X4.1182Y-2.7487
X4.1204Y-2.7854
X4.1433Y-2.9035
X4.1534Y-2.7446
X4.2024Y-2.824
X4.21Y-2.4012
X4.2219Y-2.5829
X4.246Y-2.6775
X4.2471Y-3.0604
X4.2543Y-2.4814
X4.266Y-3.0323
X4.2775Y-2.6763
X4.2842Y-2.7134
X4.3247Y-2.6849
X4.333Y-2.7373
X4.3562Y-2.6937
X4.3654Y-2.4801
X4.4187Y-2.5925
X4.4692Y-2.9793
X4.4908Y-2.5002
X4.5169Y-3.0935
X4.5203Y-2.471
X4.5432Y-2.5678
X4.5652Y-2.687
X4.5907Y-2.7391
X4.6142Y-3.0629
X4.6428Y-3.0896
X4.6876Y-2.6125
X4.8593Y-2.3058
X6.0515Y-2.4526
T2
X2.8189Y-1.7323
X2.8189Y-3.7795
X2.8466Y-1.6655
X2.8466Y-1.7991
X2.8466Y-3.7127
X2.8466Y-3.8463
X2.9134Y-1.6378
X2.9134Y-1.8268
X2.9134Y-3.685
X2.9134Y-3.874
X2.9802Y-1.6655
X2.9802Y-1.7991
X2.9802Y-3.7127
X2.9802Y-3.8463
X3.0079Y-1.7323
X3.0079Y-3.7795
X6.4409Y-1.7323
X6.4409Y-3.7795
X6.4686Y-1.6655
X6.4686Y-1.7991
X6.4686Y-3.7127
X6.4686Y-3.8463
X6.5354Y-1.6378
X6.5354Y-1.8268
X6.5354Y-3.685
X6.5354Y-3.874
X6.6022Y-1.6655
X6.6022Y-1.7991
X6.6022Y-3.7127
X6.6022Y-3.8463
X6.6299Y-1.7323
X6.6299Y-3.7795
T3
X3.1693Y-2.4213
X3.1693Y-2.5197
X3.1693Y-2.9921
X3.1693Y-3.0906
X3.1988Y-2.0276
X3.1988Y-3.4843
X3.2972Y-2.0276
X3.2972Y-3.4843
X3.3957Y-2.0276
X3.3957Y-3.4843
X3.4941Y-2.0276
X3.4941Y-3.4843
X3.75Y-2.0276
X3.75Y-3.4843
X3.8484Y-2.0276
X3.8484Y-3.4843
X3.9469Y-2.0276
X3.9469Y-3.4843
X4.0453Y-2.0276
X4.0453Y-3.4843
X4.3012Y-2.0276
X4.3012Y-3.4843
X4.3996Y-2.0276
X4.3996Y-3.4843
X4.498Y-2.0276
X4.498Y-3.4843
X4.5965Y-2.0276
X4.5965Y-3.4843
X4.8524Y-2.0276
X4.8524Y-3.4843
X4.9508Y-2.0276
X4.9508Y-3.4843
X5.0492Y-2.0276
X5.0492Y-3.4843
X5.1476Y-2.0276
X5.1476Y-3.4843
X5.4626Y-2.0276
X5.4626Y-3.4843
X5.561Y-2.0276
X5.561Y-3.4843
X5.8169Y-2.0276
X5.8386Y-3.4843
X5.9154Y-2.0276
X5.937Y-3.4843
X6.1417Y-2.874
X6.1417Y-2.9724
X6.1417Y-3.0709
X6.1417Y-3.1693
X6.2795Y-2.0374
X6.2795Y-2.1358
X6.2795Y-2.3917
X6.2795Y-2.4902
X6.4961Y-2.874
X6.4961Y-2.9724
X6.4961Y-3.0709
X6.4961Y-3.1693
T4
X3.5614Y-2.3228
X3.5827Y-2.8346
X3.6614Y-2.3228
X3.6827Y-2.8346
X4.8Y-2.9921
X4.8819Y-2.4197
X4.8819Y-2.5197
X4.9Y-2.9921
X5.0Y-2.9921
X5.0787Y-2.4197
X5.0787Y-2.5197
X5.1Y-2.9921
X5.2Y-2.9921
T5
X2.9134Y-1.7323
X2.9134Y-3.7795
X6.5354Y-1.7323
X6.5354Y-3.7795
M30
